<?xml version="1.0" encoding="UTF-8" standalone="no"?>
<!-- Created with Inkscape (http://www.inkscape.org/) -->

<svg
   xmlns:dc="http://purl.org/dc/elements/1.1/"
   xmlns:cc="http://creativecommons.org/ns#"
   xmlns:rdf="http://www.w3.org/1999/02/22-rdf-syntax-ns#"
   xmlns:svg="http://www.w3.org/2000/svg"
   xmlns="http://www.w3.org/2000/svg"
   xmlns:sodipodi="http://sodipodi.sourceforge.net/DTD/sodipodi-0.dtd"
   xmlns:inkscape="http://www.inkscape.org/namespaces/inkscape"
   width="170.6218mm"
   height="144.72722mm"
   viewBox="0 0 170.62179 144.72722"
   version="1.1"
   id="svg8"
   inkscape:version="0.92.4 (5da689c313, 2019-01-14)"
   sodipodi:docname="Illus_Winter.svg">
  <defs
     id="defs2" />
  <sodipodi:namedview
     id="base"
     pagecolor="#ffffff"
     bordercolor="#666666"
     borderopacity="1.0"
     inkscape:pageopacity="0.0"
     inkscape:pageshadow="2"
     inkscape:zoom="0.35"
     inkscape:cx="-181.69574"
     inkscape:cy="235.65285"
     inkscape:document-units="mm"
     inkscape:current-layer="layer1"
     showgrid="false"
     inkscape:window-width="2560"
     inkscape:window-height="1377"
     inkscape:window-x="-8"
     inkscape:window-y="-8"
     inkscape:window-maximized="1" />
  <metadata
     id="metadata5">
    <rdf:RDF>
      <cc:Work
         rdf:about="">
        <dc:format>image/svg+xml</dc:format>
        <dc:type
           rdf:resource="http://purl.org/dc/dcmitype/StillImage" />
        <dc:title></dc:title>
      </cc:Work>
    </rdf:RDF>
  </metadata>
  <g
     inkscape:label="Layer 1"
     inkscape:groupmode="layer"
     id="layer1"
     transform="translate(-20.369684,-90.098288)">
    <g
       id="layer1-7"
       inkscape:label="Layer 1"
       transform="translate(-6.2003697,8.3368941)">
      <g
         transform="matrix(0.26458333,0,0,0.26458333,26.569786,81.761524)"
         id="g4693">
        <path
           style="fill:#e6e6e6"
           inkscape:connector-curvature="0"
           d="M 864,665.5 H 336 V 440.49951 a 264,264 0 0 1 528,0 z"
           transform="translate(-277.56413,-176.5)"
           id="path4518" />
        <path
           style="fill:#3f3d56"
           inkscape:connector-curvature="0"
           d="m 469.41536,655.60632 a 0.7188,0.7188 0 0 0 0.71906,-0.71858 V 353.59883 a 0.71907,0.71907 0 0 0 -1.43813,0 v 301.28891 a 0.71881,0.71881 0 0 0 0.71907,0.71858 z"
           transform="translate(-277.56413,-176.5)"
           id="path4520" />
        <path
           style="fill:#3f3d56"
           inkscape:connector-curvature="0"
           d="m 469.41536,411.7648 a 0.717,0.717 0 0 0 0.50849,-0.21052 L 504.53572,376.966 a 0.718813,0.718813 0 0 0 -1.017,-1.01611 l -34.61187,34.58829 a 0.71858,0.71858 0 0 0 0.50849,1.22663 z"
           transform="translate(-277.56413,-176.5)"
           id="path4522" />
        <path
           style="fill:#3f3d56"
           inkscape:connector-curvature="0"
           d="m 469.41536,471.64407 a 0.71858,0.71858 0 0 0 0.50849,-1.22664 L 411.96,412.49251 a 0.718813,0.718813 0 0 0 -1.017,1.01611 l 57.96386,57.92493 a 0.71721,0.71721 0 0 0 0.5085,0.21052 z"
           transform="translate(-277.56413,-176.5)"
           id="path4524" />
        <path
           style="fill:#ffffff"
           inkscape:connector-curvature="0"
           d="m 556.86357,442.99859 c 0,-48.26367 -39.15191,-162.791 -87.44824,-162.791 -48.29633,0 -87.44825,114.52731 -87.44825,162.791 a 87.44827,87.44827 0 0 0 174.89649,0 z"
           transform="translate(-277.56413,-176.5)"
           id="path4526" />
        <path
           style="fill:#f2f2f2"
           inkscape:connector-curvature="0"
           d="m 426.70709,311.58769 a 125.55359,125.55359 0 0 0 68.86227,9.14942 121.11847,121.11847 0 0 0 19.16953,-4.48087 l -1.694,-2.2035 a 153.022,153.022 0 0 1 -38.04812,41.3687 159.23075,159.23075 0 0 1 -50.04014,25.283 149.989,149.989 0 0 1 -31.16616,5.80893 1.52057,1.52057 0 0 0 -1.06066,2.56066 137.51977,137.51977 0 0 0 54.58977,36.75559 136.51562,136.51562 0 0 0 107.46042,-6.29016 l -2.05228,-2.05229 a 144.15363,144.15363 0 0 1 -47.66659,49.38442 153.1866,153.1866 0 0 1 -64.59659,23.10541 139.484,139.484 0 0 1 -38.745,-0.90378 c -1.88852,-0.31576 -2.70044,2.57466 -0.79752,2.89284 a 147.35911,147.35911 0 0 0 69.79342,-5.57471 156.56233,156.56233 0 0 0 60.16319,-36.08094 142.338,142.338 0 0 0 24.43944,-31.309 1.5124,1.5124 0 0 0 -2.05228,-2.05229 134.48071,134.48071 0 0 1 -68.32079,13.77827 133.61961,133.61961 0 0 1 -90.09378,-43.77466 l -1.06066,2.56066 a 156.93734,156.93734 0 0 0 55.393,-14.95117 161.5603,161.5603 0 0 0 46.59034,-33.52462 153.78542,153.78542 0 0 0 19.86144,-25.4707 1.51541,1.51541 0 0 0 -1.694,-2.2035 122.177,122.177 0 0 1 -67.477,1.92753 118.91015,118.91015 0 0 1 -18.2431,-6.29365 c -1.75068,-0.77036 -3.27927,1.8137 -1.51416,2.59041 z"
           transform="translate(-277.56413,-176.5)"
           id="path4528" />
        <circle
           style="fill:#58b2e4"
           cx="165.43588"
           cy="140"
           r="4.5"
           id="circle4530" />
        <circle
           style="fill:#58b2e4"
           cx="197.43588"
           cy="143"
           r="4.5"
           id="circle4532" />
        <circle
           style="fill:#58b2e4"
           cx="225.43588"
           cy="155"
           r="4.5"
           id="circle4534" />
        <circle
           style="fill:#58b2e4"
           cx="201.43588"
           cy="176"
           r="4.5"
           id="circle4536" />
        <circle
           style="fill:#58b2e4"
           cx="174.43588"
           cy="196"
           r="4.5"
           id="circle4538" />
        <circle
           style="fill:#58b2e4"
           cx="136.43588"
           cy="209"
           r="4.5"
           id="circle4540" />
        <circle
           style="fill:#58b2e4"
           cx="156.43588"
           cy="242"
           r="4.5"
           id="circle4542" />
        <circle
           style="fill:#58b2e4"
           cx="202.43588"
           cy="256"
           r="4.5"
           id="circle4544" />
        <circle
           style="fill:#58b2e4"
           cx="202.43588"
           cy="256"
           r="4.5"
           id="circle4546" />
        <circle
           style="fill:#58b2e4"
           cx="242.43588"
           cy="254"
           r="4.5"
           id="circle4548" />
        <circle
           style="fill:#58b2e4"
           cx="229.43588"
           cy="292"
           r="4.5"
           id="circle4550" />
        <circle
           style="fill:#58b2e4"
           cx="188.43588"
           cy="309"
           r="4.5"
           id="circle4552" />
        <circle
           style="fill:#58b2e4"
           cx="145.43588"
           cy="317"
           r="4.5"
           id="circle4554" />
        <circle
           style="fill:#ffffff"
           cx="195.93588"
           cy="73.5"
           r="10"
           id="circle4556" />
        <circle
           style="fill:#ffffff"
           cx="505.93588"
           cy="256.5"
           r="10"
           id="circle4558" />
        <circle
           style="fill:#ffffff"
           cx="125.93589"
           cy="376.5"
           r="10"
           id="circle4560" />
        <circle
           style="fill:#ffffff"
           cx="278.93588"
           cy="87.5"
           r="10"
           id="circle4562" />
        <circle
           style="fill:#ffffff"
           cx="547.93591"
           cy="418.5"
           r="10"
           id="circle4564" />
        <circle
           style="fill:#ffffff"
           cx="359.93588"
           cy="285.5"
           r="10"
           id="circle4566" />
        <circle
           style="fill:#ffffff"
           cx="389.93588"
           cy="186.5"
           r="10"
           id="circle4568" />
        <circle
           style="fill:#ffffff"
           cx="251.93588"
           cy="398.5"
           r="10"
           id="circle4570" />
        <path
           style="fill:#ffffff"
           inkscape:connector-curvature="0"
           d="m 722.69527,646.128 h -16.5 a 9.03555,9.03555 0 0 1 -6.56763,-2.84619 8.93106,8.93106 0 0 1 -2.41309,-6.75195 9.17109,9.17109 0 0 1 9.272,-8.40186 h 3.70874 v -20 h 22 v 28.5 a 9.51081,9.51081 0 0 1 -9.50002,9.5 z"
           transform="translate(-277.56413,-176.5)"
           id="path4572" />
        <path
           style="fill:#ffffff"
           inkscape:connector-curvature="0"
           d="M 717.41687,557.23153 697.51649,555.238 a 11.00025,11.00025 0 0 1 2.19279,-21.89094 l 19.90038,1.99356 a 11.00038,11.00038 0 0 1 5.8676,19.46047 11.11216,11.11216 0 0 1 -1.58379,1.08283 10.92159,10.92159 0 0 1 -6.4766,1.34761 z"
           transform="translate(-277.56413,-176.5)"
           id="path4574" />
        <path
           style="fill:#3f3d56"
           inkscape:connector-curvature="0"
           d="m 667.27036,541.15234 v -6e-5 a 10.49994,10.49994 0 0 1 11.49443,-9.401 l 1.14321,-0.0737 -1.76484,-1.71005 a 2.49979,2.49979 0 1 1 3.47894,-3.59064 l 5.02244,4.86606 7.59852,-0.49028 a 4.00007,4.00007 0 0 1 4.257,3.9252 l 0.29909,17.98126 a 3.99984,3.99984 0 0 1 -4.89888,3.964 l -17.22915,-3.97633 a 10.50007,10.50007 0 0 1 -9.40076,-11.49441 z"
           transform="translate(-277.56413,-176.5)"
           id="path4576" />
        <ellipse
           style="fill:#ffffff"
           cx="456.63113"
           cy="396.12796"
           rx="41.5"
           ry="50"
           id="ellipse4578" />
        <ellipse
           style="fill:#3f3d56"
           cx="433.13113"
           cy="391.02795"
           rx="3"
           ry="5.0999999"
           id="ellipse4580" />
        <ellipse
           style="fill:#3f3d56"
           cx="432.13113"
           cy="405.22794"
           rx="3"
           ry="5.0999999"
           id="ellipse4582" />
        <circle
           style="fill:#ffffff"
           cx="456.13113"
           cy="325.12796"
           r="32"
           id="circle4584" />
        <path
           style="fill:#3f3d56"
           inkscape:connector-curvature="0"
           d="m 760.69527,492.128 h -53 a 6.50736,6.50736 0 0 1 -6.5,-6.5 v -5 c 0,-16.84277 17.05053,-32.5 35.5,-32.5 18.44947,0 29.5,15.65723 29.5,32.5 v 6 a 5.50622,5.50622 0 0 1 -5.5,5.5 z"
           transform="translate(-277.56413,-176.5)"
           id="path4586" />
        <circle
           style="fill:#58b2e4"
           cx="460.13113"
           cy="272.12796"
           r="8"
           id="circle4588" />
        <circle
           style="fill:#3f3d56"
           cx="448.63113"
           cy="322.62796"
           r="3"
           id="circle4590" />
        <circle
           style="fill:#3f3d56"
           cx="431.63113"
           cy="322.62796"
           r="3"
           id="circle4592" />
        <path
           style="fill:#ffffff"
           inkscape:connector-curvature="0"
           d="m 759.19527,646.128 h -16.5 a 9.51081,9.51081 0 0 1 -9.5,-9.5 v -28.5 h 22 v 20 h 3.70873 a 9.17109,9.17109 0 0 1 9.272,8.40186 8.931,8.931 0 0 1 -2.41309,6.75195 9.03551,9.03551 0 0 1 -6.56764,2.84619 z"
           transform="translate(-277.56413,-176.5)"
           id="path4594" />
        <path
           style="fill:#ff6584"
           inkscape:connector-curvature="0"
           d="m 719.53706,511.06008 c -0.0286,0 -0.0571,-3.7e-4 -0.0859,-0.002 l -27.594,-1.20693 a 1.36129,1.36129 0 0 1 -1.40649,-1.02758 c -0.0774,-0.57283 0.376,-1.07728 1.10229,-1.22674 l 26.38355,-5.4301 a 1.9016,1.9016 0 0 1 1.21728,0.15133 1.16246,1.16246 0 0 1 0.65772,0.7989 l 1.21045,6.63629 a 0.98145,0.98145 0 0 1 -0.38208,0.9364 1.73391,1.73391 0 0 1 -1.10279,0.3703 z"
           transform="translate(-277.56413,-176.5)"
           id="path4596" />
        <path
           style="fill:#e6e6e6"
           inkscape:connector-curvature="0"
           d="m 720.33356,514.24543 c -4.13513,0 -8.01231,-2.63214 -8.01231,-0.42767 0,2.20447 3.87715,8.41083 8.01231,8.41083 4.13516,0 7.86171,-4.3531 7.86171,-6.5576 0,-2.2045 -3.72658,-1.42556 -7.86171,-1.42556 z"
           transform="translate(-277.56413,-176.5)"
           id="path4598" />
        <path
           style="fill:#58b2e4"
           inkscape:connector-curvature="0"
           d="m 694.058,602.59012 -61.41977,17.7287 a 7.61193,7.61193 0 0 1 -9.41311,-5.19618 l -16.31837,-56.53378 a 7.61191,7.61191 0 0 1 5.19617,-9.41311 l 61.41977,-17.7287 a 7.61192,7.61192 0 0 1 9.41312,5.19617 l 16.31835,56.53378 a 7.61192,7.61192 0 0 1 -5.19616,9.41312 z"
           transform="translate(-277.56413,-176.5)"
           id="path4600" />
        <path
           style="fill:#3f3d56"
           inkscape:connector-curvature="0"
           d="m 668.45364,612.42365 -8.91009,2.57188 a 4.02945,4.02945 0 0 1 -4.98342,-2.75091 L 635.064,544.70184 a 4.02943,4.02943 0 0 1 2.75091,-4.98341 l 8.91009,-2.57188 a 4.02943,4.02943 0 0 1 4.98341,2.75091 l 19.4961,67.54278 a 4.02943,4.02943 0 0 1 -2.75087,4.98341 z"
           transform="translate(-277.56413,-176.5)"
           id="path4602" />
        <path
           style="fill:#3f3d56"
           inkscape:connector-curvature="0"
           d="m 636.06783,525.43837 c 6.28924,2.871 7.65134,13.38334 7.65134,13.38334 0,0 -8.83483,5.85748 -15.12413,2.98649 -6.2893,-2.87099 -7.65134,-13.38334 -7.65134,-13.38334 0,0 8.83487,-5.85755 15.12413,-2.98649 z"
           transform="translate(-277.56413,-176.5)"
           id="path4604" />
        <path
           style="fill:#3f3d56"
           inkscape:connector-curvature="0"
           d="m 656.31362,532.77761 c -2.85138,6.29818 -13.35942,7.69307 -13.35942,7.69307 0,0 -5.885,-8.81653 -3.03365,-15.11472 2.85135,-6.29819 13.35945,-7.69307 13.35945,-7.69307 0,0 5.885,8.81654 3.03362,15.11472 z"
           transform="translate(-277.56413,-176.5)"
           id="path4606" />
        <path
           style="fill:#f2f2f2"
           inkscape:connector-curvature="0"
           d="m 733.05835,565.46292 -19.09935,5.93424 a 11.00025,11.00025 0 0 1 -6.528,-21.00969 l 19.09933,-5.93424 a 11.00038,11.00038 0 0 1 12.99975,15.62515 11.11191,11.11191 0 0 1 -1.03534,1.61524 10.92148,10.92148 0 0 1 -5.43639,3.7693 z"
           transform="translate(-277.56413,-176.5)"
           id="path4608" />
        <path
           style="fill:#3f3d56"
           inkscape:connector-curvature="0"
           d="m 680.614,570.23822 v 0 a 10.49993,10.49993 0 0 1 6.91182,-13.14256 l 1.02369,-0.51424 -2.29242,-0.8853 a 2.4997922,2.4997922 0 1 1 1.801,-4.66393 l 6.52366,2.519 6.80406,-3.418 a 4.00007,4.00007 0 0 1 5.45162,1.95165 l 7.29557,16.43736 a 3.99984,3.99984 0 0 1 -2.96242,5.56208 l -17.41422,3.06592 A 10.50007,10.50007 0 0 1 680.614,570.23822 Z"
           transform="translate(-277.56413,-176.5)"
           id="path4610" />
        <path
           style="fill:#ffffff"
           inkscape:connector-curvature="0"
           d="m 522.16348,647.874 h -32.17731 a 3.8314,3.8314 0 0 1 -3.82684,-3.82684 v -29.61759 a 3.8314,3.8314 0 0 1 3.82684,-3.82684 h 32.17731 a 3.8314,3.8314 0 0 1 3.82684,3.82684 v 29.61758 a 3.8314,3.8314 0 0 1 -3.82684,3.82685 z"
           transform="translate(-277.56413,-176.5)"
           id="path4612" />
        <path
           style="fill:#3f3d56"
           inkscape:connector-curvature="0"
           d="m 508.40857,649.05537 h -4.66793 a 2.02819,2.02819 0 0 1 -2.026,-2.026 V 611.6443 a 2.02819,2.02819 0 0 1 2.026,-2.026 h 4.66793 a 2.02819,2.02819 0 0 1 2.026,2.026 v 35.3851 a 2.02819,2.02819 0 0 1 -2.026,2.02597 z"
           transform="translate(-277.56413,-176.5)"
           id="path4614" />
        <path
           style="fill:#3f3d56"
           inkscape:connector-curvature="0"
           d="m 504.88909,602.46862 c 2.64071,2.26633 1.832,7.54022 1.832,7.54022 0,0 -5.09016,1.59942 -7.7309,-0.66691 -2.64074,-2.26633 -1.832,-7.54023 -1.832,-7.54023 0,0 5.09019,-1.59944 7.7309,0.66692 z"
           transform="translate(-277.56413,-176.5)"
           id="path4616" />
        <path
           style="fill:#3f3d56"
           inkscape:connector-curvature="0"
           d="m 513.65546,608.844 c -2.25809,2.64777 -7.53448,1.85552 -7.53448,1.85552 0,0 -1.6153,-5.08516 0.64279,-7.73293 2.25809,-2.64777 7.53448,-1.85553 7.53448,-1.85553 0,0 1.6153,5.08515 -0.64279,7.73294 z"
           transform="translate(-277.56413,-176.5)"
           id="path4618" />
        <path
           style="fill:#ffffff"
           inkscape:connector-curvature="0"
           d="M 440.157,648.1807 H 416.33336 A 2.83672,2.83672 0 0 1 413.5,645.34736 v -21.92844 a 2.83672,2.83672 0 0 1 2.83334,-2.83334 H 440.157 a 2.83672,2.83672 0 0 1 2.83334,2.83334 v 21.92844 a 2.83672,2.83672 0 0 1 -2.83334,2.83334 z"
           transform="translate(-277.56413,-176.5)"
           id="path4620" />
        <path
           style="fill:#3f3d56"
           inkscape:connector-curvature="0"
           d="m 429.973,649.05537 h -3.456 a 1.50165,1.50165 0 0 1 -1.5,-1.5 v -26.19862 a 1.50165,1.50165 0 0 1 1.5,-1.5 h 3.456 a 1.50164,1.50164 0 0 1 1.5,1.5 v 26.19862 a 1.50164,1.50164 0 0 1 -1.5,1.5 z"
           transform="translate(-277.56413,-176.5)"
           id="path4622" />
        <path
           style="fill:#3f3d56"
           inkscape:connector-curvature="0"
           d="m 427.36727,614.5632 c 1.95514,1.678 1.35639,5.58268 1.35639,5.58268 0,0 -3.76869,1.18418 -5.72385,-0.49378 -1.95516,-1.67796 -1.35639,-5.58267 -1.35639,-5.58267 0,0 3.76871,-1.18421 5.72385,0.49377 z"
           transform="translate(-277.56413,-176.5)"
           id="path4624" />
        <path
           style="fill:#3f3d56"
           inkscape:connector-curvature="0"
           d="m 433.85776,619.28343 c -1.67186,1.96037 -5.57842,1.3738 -5.57842,1.3738 0,0 -1.19595,-3.765 0.47591,-5.72535 1.67186,-1.96035 5.57842,-1.37381 5.57842,-1.37381 0,0 1.19595,3.76499 -0.47591,5.72536 z"
           transform="translate(-277.56413,-176.5)"
           id="path4626" />
        <path
           style="fill:#3f3d56"
           inkscape:connector-curvature="0"
           d="M 903.93484,723.5 H 296.06509 a 18.49992,18.49992 0 0 1 -18.27356,-21.38525 l 6.31579,-40 A 18.41321,18.41321 0 0 1 302.38088,646.5 h 595.23828 a 18.4136,18.4136 0 0 1 18.27368,15.61475 l 6.31568,40 A 18.49975,18.49975 0 0 1 903.93484,723.5 Z"
           transform="translate(-277.56413,-176.5)"
           id="path4628" />
      </g>
    </g>
  </g>
</svg>
