<?xml version="1.0" encoding="UTF-8" standalone="no"?>
<!-- Created with Inkscape (http://www.inkscape.org/) -->

<svg
   xmlns:dc="http://purl.org/dc/elements/1.1/"
   xmlns:cc="http://creativecommons.org/ns#"
   xmlns:rdf="http://www.w3.org/1999/02/22-rdf-syntax-ns#"
   xmlns:svg="http://www.w3.org/2000/svg"
   xmlns="http://www.w3.org/2000/svg"
   xmlns:sodipodi="http://sodipodi.sourceforge.net/DTD/sodipodi-0.dtd"
   xmlns:inkscape="http://www.inkscape.org/namespaces/inkscape"
   width="235.84441mm"
   height="151.84077mm"
   viewBox="0 0 235.84441 151.84077"
   version="1.1"
   id="svg8"
   inkscape:version="0.92.4 (5da689c313, 2019-01-14)"
   sodipodi:docname="Illus_Announcement.svg">
  <defs
     id="defs2" />
  <sodipodi:namedview
     id="base"
     pagecolor="#ffffff"
     bordercolor="#666666"
     borderopacity="1.0"
     inkscape:pageopacity="0.0"
     inkscape:pageshadow="2"
     inkscape:zoom="0.35"
     inkscape:cx="15.690239"
     inkscape:cy="238.37175"
     inkscape:document-units="mm"
     inkscape:current-layer="layer1"
     showgrid="false"
     inkscape:window-width="2560"
     inkscape:window-height="1377"
     inkscape:window-x="2552"
     inkscape:window-y="-8"
     inkscape:window-maximized="1" />
  <metadata
     id="metadata5">
    <rdf:RDF>
      <cc:Work
         rdf:about="">
        <dc:format>image/svg+xml</dc:format>
        <dc:type
           rdf:resource="http://purl.org/dc/dcmitype/StillImage" />
        <dc:title></dc:title>
      </cc:Work>
    </rdf:RDF>
  </metadata>
  <g
     inkscape:label="Layer 1"
     inkscape:groupmode="layer"
     id="layer1"
     transform="translate(21.160304,-60.061759)">
    <g
       id="g1424"
       transform="matrix(0.26458333,0,0,0.26458333,-21.160307,60.061784)">
      <path
         id="path817"
         transform="translate(-153.84583,-158.53689)"
         d="m 222.56875,620.33642 -6.29347,-24.82268 a 322.32428,322.32428 0 0 0 -34.197,-12.26884 l -0.79466,11.5361 -3.22221,-12.70926 c -14.41146,-4.11523 -24.21557,-5.92792 -24.21557,-5.92792 0,0 13.24309,50.35943 41.01953,88.85984 l 32.36563,5.68523 -25.144,3.62529 a 130.406,130.406 0 0 0 11.24726,11.9192 c 40.40686,37.50621 85.41249,54.71427 100.52292,38.43523 15.11043,-16.27904 -5.3964,-59.88058 -45.80326,-97.38679 -12.52653,-11.62729 -28.2625,-20.9581 -44.01412,-28.30163 z"
         inkscape:connector-curvature="0"
         style="fill:#e6e6e6" />
      <path
         id="path819"
         transform="translate(-153.84583,-158.53689)"
         d="m 282.42465,593.37955 7.44338,-24.50243 a 322.32527,322.32527 0 0 0 -22.9324,-28.17916 l -6.64329,9.46467 3.81107,-12.54527 c -10.20968,-10.97213 -17.66546,-17.59163 -17.66546,-17.59163 0,0 -14.69417,49.95527 -10.81721,97.27107 l 24.76773,21.59665 -23.39828,-9.89354 a 130.40607,130.40607 0 0 0 3.4671,16.0171 c 15.20308,52.99336 44.83506,90.9877 66.18493,84.86272 21.34987,-6.12498 26.33278,-54.04988 11.1297,-107.04324 -4.7131,-16.42847 -13.36069,-32.55 -23.04891,-46.97843 z"
         inkscape:connector-curvature="0"
         style="fill:#e6e6e6" />
      <path
         id="path821"
         transform="translate(-153.84583,-158.53689)"
         d="m 975.58764,646.17549 14.10965,-8.8692 a 209.7704,209.7704 0 0 0 0.74688,-23.6325 l -7.30238,1.81875 7.22418,-4.541 c -0.3386,-9.748 -1.18,-16.18181 -1.18,-16.18181 0,0 -28.53,18.28772 -46.80571,43.199 l 2.96287,21.17974 -7.2814,-14.84306 a 84.86687,84.86687 0 0 0 -5.12747,9.35189 c -15.13006,32.533 -16.77024,63.84761 -3.66341,69.94318 13.10683,6.09557 35.99733,-15.3362 51.12739,-47.86919 4.69047,-10.08555 7.31605,-21.69838 8.708,-32.92284 z"
         inkscape:connector-curvature="0"
         style="fill:#e6e6e6" />
      <path
         id="path823"
         transform="translate(-153.84583,-158.53689)"
         d="m 1004.2692,677.83874 16.663,-0.29913 a 209.77,209.77 0 0 0 12.855,-19.84442 l -7.1913,-2.21768 8.5315,-0.15312 c 4.7489,-8.51971 7.3542,-14.46232 7.3542,-14.46232 0,0 -33.8759,0.9079 -62.3974,12.78639 l -8.41148,19.66232 1.43918,-16.47009 a 84.86767,84.86767 0 0 0 -9.22335,5.35524 c -29.76836,20.029 -47.359,45.98787 -39.28977,57.98089 8.06923,11.99302 38.74264,5.47859 68.511,-14.55036 9.22852,-6.20918 17.47882,-14.79312 24.47232,-23.68227 z"
         inkscape:connector-curvature="0"
         style="fill:#e6e6e6" />
      <rect
         id="rect825"
         height="2.24072"
         width="888"
         y="571.27264"
         x="2.0292301"
         style="fill:#3f3d56" />
      <rect
         id="rect827"
         transform="rotate(26.64397,661.53956,-178.12239)"
         height="13.89411"
         width="2.5729799"
         y="219.04904"
         x="402.42072"
         style="fill:#ffffff" />
      <rect
         id="rect829"
         transform="rotate(-6.64807,-1047.1461,1778.3802)"
         height="4.14182"
         width="0.76700002"
         y="531.15955"
         x="394.19559"
         style="fill:#3f3d56" />
      <rect
         id="rect831"
         transform="rotate(71.64397,430.07905,381.88564)"
         height="4.14182"
         width="0.76700002"
         y="565.65326"
         x="396.79889"
         style="fill:#ffffff" />
      <rect
         id="rect833"
         transform="rotate(-3.44079,-2320.6277,3029.9897)"
         height="4.14182"
         width="0.76700002"
         y="546.12848"
         x="395.06339"
         style="fill:#ffffff" />
      <rect
         id="rect835"
         transform="rotate(-3.44079,-2324.2072,3007.3193)"
         height="4.14182"
         width="0.76700002"
         y="523.45813"
         x="391.48383"
         style="fill:#ffffff" />
      <rect
         id="rect837"
         transform="rotate(68.00391,485.36102,347.46566)"
         height="4.14182"
         width="0.76700002"
         y="538.69769"
         x="444.38879"
         style="fill:#ff6584" />
      <rect
         id="rect839"
         transform="rotate(15,925.83415,-122.51565)"
         height="4.14182"
         width="0.76700002"
         y="538.96942"
         x="400.26996"
         style="fill:#ff6584" />
      <rect
         id="rect841"
         height="13.05757"
         width="2.4180701"
         y="70.60759"
         x="286.47885"
         style="fill:#3f3d56" />
      <rect
         id="rect843"
         height="13.05757"
         width="2.4180701"
         y="102.04247"
         x="285.02802"
         style="fill:#ffffff" />
      <rect
         id="rect845"
         transform="rotate(45,552.27714,269.62635)"
         height="3.8924501"
         width="0.72082001"
         y="532.65692"
         x="437.46869"
         style="fill:#ffffff" />
      <rect
         id="rect847"
         transform="rotate(45,559.51487,311.3198)"
         height="3.8924501"
         width="0.72082001"
         y="574.35034"
         x="444.70642"
         style="fill:#ffffff" />
      <rect
         id="rect849"
         transform="rotate(15,965.25247,-103.87563)"
         height="3.8924501"
         width="0.72082001"
         y="557.73413"
         x="439.71136"
         style="fill:#ff6584" />
      <rect
         id="rect851"
         transform="rotate(45,555.53921,279.82036)"
         height="3.8924501"
         width="0.72082001"
         y="542.85089"
         x="440.73077"
         style="fill:#ff6584" />
      <path
         id="path853"
         transform="translate(-153.84583,-158.53689)"
         d="m 431.65184,543.20708 a 3.3068202,3.3068202 0 0 0 -4.67655,-4.67655 L 321.45871,644.04711 a 3.3068202,3.3068202 0 1 0 4.67655,4.67655 L 430.97271,543.88621"
         inkscape:connector-curvature="0"
         style="fill:#3f3d56" />
      <path
         id="path855"
         transform="translate(-153.84583,-158.53689)"
         d="m 442.43705,529.88991 a 49.7108,49.7108 0 1 0 12.377,49.80895 49.73292,49.73292 0 0 0 -12.377,-49.80895 z m -40.70237,54.09446 a 20.57506,20.57506 0 0 1 -9.0502,-5.28168 c -0.50746,-0.50747 -0.97736,-1.04316 -1.4285,-1.58825 a 20.621,20.621 0 1 1 10.4787,6.86993 z"
         inkscape:connector-curvature="0"
         style="fill:#58b2e4" />
      <path
         id="path857"
         transform="translate(-153.84583,-158.53689)"
         d="m 329.77182,253.48205 a 11.093,11.093 0 0 0 -22.186,0 v 467.53873 a 11.093,11.093 0 1 0 22.186,0 V 256.70392"
         inkscape:connector-curvature="0"
         style="fill:#3f3d56" />
      <path
         id="path859"
         transform="translate(-153.84583,-158.53689)"
         d="m 471.27367,249.33779 a 166.88907,166.88907 0 1 0 19.35033,78.04967 166.80507,166.80507 0 0 0 -19.35033,-78.04967 z m -113.508,138.29035 a 69.16662,69.16662 0 1 1 35.167,-60.24068 68.82727,68.82727 0 0 1 -35.16705,60.24068 z"
         inkscape:connector-curvature="0"
         style="fill:#58b2e4" />
      <path
         id="path861"
         transform="translate(-153.84583,-158.53689)"
         d="M 323.2902,483.59079 A 166.84215,166.84215 0 0 1 156.53211,321.94837 q -0.0866,2.70721 -0.0886,5.43522 a 166.8467,166.8467 0 1 0 333.69339,0 q 0,-2.73149 -0.0883,-5.44172 A 166.8422,166.8422 0 0 1 323.2902,483.59079 Z"
         inkscape:connector-curvature="0"
         style="opacity:0.2" />
      <path
         id="path863"
         transform="translate(-153.84583,-158.53689)"
         d="m 323.77337,244.13136 a 83.25143,83.25143 0 1 0 83.25617,83.2561 83.34882,83.34882 0 0 0 -83.25617,-83.2561 z m 33.99225,143.49678 a 69.16662,69.16662 0 1 1 35.167,-60.24068 68.82727,68.82727 0 0 1 -35.167,60.24068 z"
         inkscape:connector-curvature="0"
         style="opacity:0.2" />
      <path
         id="path865"
         transform="translate(-153.84583,-158.53689)"
         d="m 471.276,247.33318 v 27.75459 a 10.1485,10.1485 0 0 1 -17.4778,7.02689 v 3.16285 a 12.0565,12.0565 0 1 1 -24.113,0 v -2.6357 a 10.14321,10.14321 0 0 1 -16.92647,-7.554 l -0.48362,-29.50043 v -6.80445 a 4.11072,4.11072 0 0 0 -8.22143,0 v 6.80445 l -0.48361,24.66429 a 10.15589,10.15589 0 0 1 -20.31178,0 l -1.24289,-24.66429 v -12.60785 a 6.73673,6.73673 0 0 0 -13.47346,0 v 12.60781 l -0.75928,24.66429 a 10.14811,10.14811 0 0 1 -18.13551,6.26762 10.12858,10.12858 0 0 1 -13.8507,2.01185 v 6.74641 a 12.0565,12.0565 0 1 1 -24.113,0 v -20.82924 a 10.15184,10.15184 0 0 1 -19.41226,4.16391 v 16.66533 a 12.0565,12.0565 0 1 1 -24.113,0 v -39.69017 h -0.0677 v 39.69017 a 12.0565,12.0565 0 1 1 -24.113,0 v -16.52509 a 10.14974,10.14974 0 0 1 -19.34454,-4.30415 V 245.58734 H 223.598 v 33.88681 a 12.0565,12.0565 0 0 1 -24.113,0 v -15.02588 a 10.15589,10.15589 0 1 1 -20.31177,0 v -22.35748 a 166.905,166.905 0 0 1 292.10277,5.24239 z"
         inkscape:connector-curvature="0"
         style="fill:#e6e6e6" />
      <path
         id="path867"
         transform="translate(-153.84583,-158.53689)"
         d="m 256.034,291.53063 a 12.05551,12.05551 0 0 1 -12.05646,-12.05648 v 6.287 a 12.0565,12.0565 0 0 0 24.113,0 v -6.287 A 12.05555,12.05555 0 0 1 256.034,291.53063 Z"
         inkscape:connector-curvature="0"
         style="opacity:0.2" />
      <path
         id="path869"
         transform="translate(-153.84583,-158.53689)"
         d="m 280.2147,291.53063 a 12.05551,12.05551 0 0 1 -12.05646,-12.05648 v 6.287 a 12.0565,12.0565 0 0 0 24.113,0 v -6.287 a 12.05555,12.05555 0 0 1 -12.05654,12.05648 z"
         inkscape:connector-curvature="0"
         style="opacity:0.2" />
      <path
         id="path871"
         transform="translate(-153.84583,-158.53689)"
         d="m 243.97756,262.94905 a 10.14974,10.14974 0 0 1 -19.34454,-4.30414 v 6.287 a 10.14974,10.14974 0 0 0 19.34454,4.30414 z"
         inkscape:connector-curvature="0"
         style="opacity:0.2" />
      <rect
         id="rect873"
         height="6.2869802"
         width="0.067709997"
         y="81.247093"
         x="114.2447"
         style="opacity:0.2" />
      <path
         id="path875"
         transform="translate(-153.84583,-158.53689)"
         d="m 199.48511,258.64491 a 10.15589,10.15589 0 0 1 -20.31177,0 v 6.287 a 10.15589,10.15589 0 0 0 20.31177,0 z"
         inkscape:connector-curvature="0"
         style="opacity:0.2" />
      <rect
         id="rect877"
         height="6.2869802"
         width="1.03494"
         y="81.247093"
         x="69.752251"
         style="opacity:0.2" />
      <path
         id="path879"
         transform="translate(-153.84583,-158.53689)"
         d="m 211.54156,285.72727 a 12.0555,12.0555 0 0 1 -12.05645,-12.05648 v 6.287 a 12.0565,12.0565 0 1 0 24.113,0 v -6.287 a 12.05556,12.05556 0 0 1 -12.05655,12.05648 z"
         inkscape:connector-curvature="0"
         style="opacity:0.2" />
      <path
         id="path881"
         transform="translate(-153.84583,-158.53689)"
         d="m 323.73992,291.53063 a 12.0555,12.0555 0 0 1 -12.05645,-12.05648 v 6.287 a 12.0565,12.0565 0 0 0 24.113,0 v -6.287 a 12.05556,12.05556 0 0 1 -12.05655,12.05648 z"
         inkscape:connector-curvature="0"
         style="opacity:0.2" />
      <path
         id="path883"
         transform="translate(-153.84583,-158.53689)"
         d="m 412.2751,232.97953 a 4.110715,4.110715 0 1 0 -8.22143,0 v 6.287 a 4.11072,4.11072 0 1 1 8.22143,0 z"
         inkscape:connector-curvature="0"
         style="opacity:0.2" />
      <path
         id="path885"
         transform="translate(-153.84583,-158.53689)"
         d="m 311.68347,258.64491 a 10.15184,10.15184 0 0 1 -19.41226,4.1639 v 6.287 a 10.15184,10.15184 0 0 0 19.41226,-4.1639 z"
         inkscape:connector-curvature="0"
         style="opacity:0.2" />
      <path
         id="path887"
         transform="translate(-153.84583,-158.53689)"
         d="M 393.41417,274.60416 A 10.15465,10.15465 0 0 1 383.25828,264.44827 L 382.01536,239.784 v 6.287 l 1.24292,24.6643 a 10.15589,10.15589 0 0 0 20.31178,0 l 0.48361,-24.6643 v -6.287 l -0.48361,24.66429 a 10.15465,10.15465 0 0 1 -10.15589,10.15587 z"
         inkscape:connector-curvature="0"
         style="opacity:0.2" />
      <path
         id="path889"
         transform="translate(-153.84583,-158.53689)"
         d="m 461.12008,279.44029 a 10.12264,10.12264 0 0 1 -7.32192,-3.129 v 3.16285 a 12.0565,12.0565 0 0 1 -24.113,0 v -2.6357 a 10.14322,10.14322 0 0 1 -16.92647,-7.554 L 412.2751,239.784 v 6.287 l 0.48362,29.50043 a 10.14322,10.14322 0 0 0 16.92647,7.55405 v 2.6357 a 12.0565,12.0565 0 0 0 24.113,0 v -3.16285 a 10.14851,10.14851 0 0 0 17.4778,-7.0269 v -6.287 a 10.15465,10.15465 0 0 1 -10.15591,10.15586 z"
         inkscape:connector-curvature="0"
         style="opacity:0.2" />
      <path
         id="path891"
         transform="translate(-153.84583,-158.53689)"
         d="m 357.62676,274.60416 a 10.13111,10.13111 0 0 1 -7.97962,-3.88827 10.12856,10.12856 0 0 1 -13.8507,2.01184 v 6.287 a 10.12858,10.12858 0 0 0 13.8507,-2.01185 10.14811,10.14811 0 0 0 18.13551,-6.26761 l 0.75931,-24.6643 v -6.287 l -0.75931,24.66429 a 10.15465,10.15465 0 0 1 -10.15589,10.1559 z"
         inkscape:connector-curvature="0"
         style="opacity:0.2" />
      <path
         id="path893"
         transform="translate(-153.84583,-158.53689)"
         d="m 382.01536,227.17617 a 6.7367,6.7367 0 1 0 -13.4734,0 v 6.287 a 6.7367,6.7367 0 1 1 13.4734,0 z"
         inkscape:connector-curvature="0"
         style="opacity:0.2" />
      <rect
         id="rect895"
         height="13.05757"
         width="2.4180701"
         y="69.882172"
         x="113.10338"
         style="fill:#3f3d56" />
      <rect
         id="rect897"
         height="13.05757"
         width="2.4180701"
         y="62.86977"
         x="158.80487"
         style="fill:#3f3d56" />
      <rect
         id="rect899"
         height="13.05757"
         width="2.4180701"
         y="114.13281"
         x="100.77123"
         style="fill:#3f3d56" />
      <rect
         id="rect901"
         transform="matrix(0.82235,0.56898,-0.56898,0.82235,53.34956,-313.08642)"
         height="13.05757"
         width="2.4180701"
         y="248.00542"
         x="349.88895"
         style="fill:#3f3d56" />
      <rect
         id="rect903"
         transform="rotate(-51.64807,-8.5931538,313.90647)"
         height="13.05757"
         width="2.4180701"
         y="227.69363"
         x="230.91998"
         style="fill:#3f3d56" />
      <rect
         id="rect905"
         transform="rotate(-51.64807,133.58925,265.06148)"
         height="13.05757"
         width="2.4180701"
         y="178.84866"
         x="373.10239"
         style="fill:#3f3d56" />
      <rect
         id="rect907"
         transform="rotate(-51.64807,-35.191897,327.44765)"
         height="13.05757"
         width="2.4180701"
         y="241.23482"
         x="204.32124"
         style="fill:#3f3d56" />
      <rect
         id="rect909"
         height="13.05757"
         width="2.4180701"
         y="39.172699"
         x="122.05023"
         style="fill:#ffffff" />
      <rect
         id="rect911"
         height="13.05757"
         width="2.4180701"
         y="106.395"
         x="55.79517"
         style="fill:#ffffff" />
      <rect
         id="rect913"
         height="13.05757"
         width="2.4180701"
         y="20.311769"
         x="168.96075"
         style="fill:#ffffff" />
      <rect
         id="rect915"
         transform="rotate(26.64397,592.4875,-174.2486)"
         height="13.05757"
         width="2.4180701"
         y="223.34111"
         x="333.44608"
         style="fill:#ffffff" />
      <rect
         id="rect917"
         transform="rotate(26.64397,581.36439,-125.88723)"
         height="13.05757"
         width="2.4180701"
         y="271.70248"
         x="322.32297"
         style="fill:#ffffff" />
      <rect
         id="rect919"
         transform="rotate(-48.44079,45.24864,343.36248)"
         height="13.05757"
         width="2.4180701"
         y="245.10373"
         x="297.17505"
         style="fill:#ffffff" />
      <rect
         id="rect921"
         transform="rotate(-48.44079,-2.6290993,286.77969)"
         height="13.05757"
         width="2.4180701"
         y="188.52094"
         x="249.29732"
         style="fill:#ffffff" />
      <rect
         id="rect923"
         transform="rotate(-48.44079,156.47977,308.54231)"
         height="13.05757"
         width="2.4180701"
         y="210.28355"
         x="408.40619"
         style="fill:#ffffff" />
      <rect
         id="rect925"
         transform="rotate(-48.44079,97.962532,265.98431)"
         height="13.05757"
         width="2.4180701"
         y="167.72556"
         x="349.88895"
         style="fill:#ffffff" />
      <rect
         id="rect927"
         height="13.05757"
         width="2.4180701"
         y="62.86977"
         x="140.42755"
         style="fill:#ff6584" />
      <rect
         id="rect929"
         transform="rotate(23.00391,742.0693,-222.10095)"
         height="13.05757"
         width="2.4180701"
         y="228.66086"
         x="428.23434"
         style="fill:#ff6584" />
      <rect
         id="rect931"
         transform="rotate(-30,-122.25043,456.54262)"
         height="13.05757"
         width="2.4180701"
         y="242.20206"
         x="249.29732"
         style="fill:#ff6584" />
      <rect
         id="rect933"
         transform="rotate(-30,16.063071,447.35395)"
         height="13.05757"
         width="2.4180701"
         y="233.0134"
         x="387.61081"
         style="fill:#ff6584" />
      <rect
         id="rect935"
         transform="matrix(0.86603,-0.5,0.5,0.86603,-209.11902,18.50958)"
         height="13.05757"
         width="2.4180701"
         y="185.13564"
         x="301.52759"
         style="fill:#ff6584" />
      <rect
         id="rect937"
         transform="rotate(-30,32.505932,397.05814)"
         height="13.05757"
         width="2.4180701"
         y="182.71758"
         x="404.05368"
         style="fill:#ff6584" />
      <rect
         id="rect939"
         transform="rotate(-30,-100.48782,386.41863)"
         height="13.05757"
         width="2.4180701"
         y="172.07806"
         x="271.05994"
         style="fill:#ff6584" />
      <rect
         id="rect941"
         height="13.05757"
         width="2.4180701"
         y="36.754639"
         x="200.87926"
         style="fill:#ff6584" />
      <rect
         id="rect943"
         height="13.05757"
         width="2.4180701"
         y="58.51725"
         x="61.59853"
         style="fill:#ff6584" />
      <path
         id="path945"
         transform="translate(-153.84583,-158.53689)"
         d="m 374.238,597.88845 a 49.73552,49.73552 0 0 1 -1.07833,-69.22288 q -0.5889,0.55237 -1.16435,1.127 a 49.73687,49.73687 0 1 0 70.33855,70.33855 q 0.57578,-0.57576 1.12844,-1.16566 A 49.73552,49.73552 0 0 1 374.238,597.88845 Z"
         inkscape:connector-curvature="0"
         style="opacity:0.2" />
      <path
         id="path947"
         transform="translate(-153.84583,-158.53689)"
         d="m 426.82713,545.49989 a 27.67379,27.67379 0 1 0 0,39.12353 27.70849,27.70849 0 0 0 0,-39.12353 z m -4.98094,33.2028 a 20.62675,20.62675 0 0 1 -29.16171,0 c -0.50746,-0.50747 -0.97736,-1.04316 -1.4285,-1.58825 a 20.61619,20.61619 0 1 1 30.59021,1.58825 z"
         inkscape:connector-curvature="0"
         style="opacity:0.2" />
      <path
         id="path949"
         transform="translate(-153.84583,-158.53689)"
         d="m 455.81028,578.70338 -5.85028,5.85033 a 3.02525,3.02525 0 0 1 -5.16529,-2.20292 l -0.6667,0.66669 a 3.5940293,3.5940293 0 0 1 -5.08272,-5.08273 l 0.55557,-0.55557 a 3.02369,3.02369 0 0 1 -1.97559,-5.1602 l 6.11639,-6.32028 1.4343,-1.43429 a 1.2254161,1.2254161 0 0 0 -1.733,-1.733 l -1.43429,1.4343 -5.30088,5.097 a 3.02746,3.02746 0 0 1 -4.28148,-4.28147 l 4.93695,-5.46093 2.65758,-2.65757 a 2.00822,2.00822 0 0 0 -2.84,-2.84005 l -2.65757,2.65758 -5.359,5.03889 a 34.69534,34.69534 0 0 0 -7.64549,-3.364 3.01679,3.01679 0 0 1 -0.842,-1.63308 l -1.42206,1.42206 a 3.5940258,3.5940258 0 0 1 -5.08272,-5.08272 l 4.39055,-4.39055 a 3.02625,3.02625 0 0 1 -4.96957,-3.21417 l -3.51298,3.51284 a 3.5940293,3.5940293 0 0 1 -5.08272,-5.08273 l 8.36621,-8.36621 -0.0143,-0.0143 -8.36621,8.36621 a 3.5940293,3.5940293 0 0 1 -5.08273,-5.08272 l 3.4833,-3.48329 a 3.02563,3.02563 0 0 1 -3.17034,-4.98486 l 3.97566,-3.97566 -0.21815,-0.21815 -7.14294,7.14293 a 3.5940293,3.5940293 0 0 1 -5.08272,-5.08273 l 3.16727,-3.16727 a 3.02746,3.02746 0 0 1 -4.28147,-4.28148 l 4.71268,-4.71269 a 49.75425,49.75425 0 0 1 60.46669,62.67676 z"
         inkscape:connector-curvature="0"
         style="fill:#e6e6e6" />
      <path
         id="path951"
         transform="translate(-153.84583,-158.53689)"
         d="m 401.12358,542.64926 a 3.59373,3.59373 0 0 1 0,-5.08272 l -1.32522,1.32522 a 3.5940293,3.5940293 0 0 0 5.08273,5.08272 l 1.32522,-1.32522 a 3.59376,3.59376 0 0 1 -5.08273,0 z"
         inkscape:connector-curvature="0"
         style="opacity:0.2" />
      <path
         id="path953"
         transform="translate(-153.84583,-158.53689)"
         d="m 406.22057,547.74625 a 3.59373,3.59373 0 0 1 0,-5.08271 l -1.32522,1.32521 a 3.5940328,3.5940328 0 1 0 5.08273,5.08273 l 1.32521,-1.32522 a 3.59375,3.59375 0 0 1 -5.08272,-10e-6 z"
         inkscape:connector-curvature="0"
         style="opacity:0.2" />
      <path
         id="path955"
         transform="translate(-153.84583,-158.53689)"
         d="m 404.60688,534.08325 a 3.02563,3.02563 0 0 1 -3.17034,-4.98486 l -1.32522,1.32522 a 3.02563,3.02563 0 0 0 3.17034,4.98486 z"
         inkscape:connector-curvature="0"
         style="opacity:0.2" />
      <rect
         id="rect957"
         transform="rotate(-45,145.62318,641.39269)"
         height="0.020190001"
         width="1.87414"
         y="534.94269"
         x="412.97998"
         style="opacity:0.2" />
      <path
         id="path959"
         transform="translate(-153.84583,-158.53689)"
         d="m 396.13566,523.79751 a 3.02746,3.02746 0 1 1 -4.28147,-4.28148 l -1.32522,1.32522 a 3.02746,3.02746 0 0 0 4.28147,4.28148 z"
         inkscape:connector-curvature="0"
         style="opacity:0.2" />
      <rect
         id="rect961"
         transform="rotate(-45,136.34664,632.11616)"
         height="0.30851001"
         width="1.87414"
         y="525.52203"
         x="403.70343"
         style="opacity:0.2" />
      <path
         id="path963"
         transform="translate(-153.84583,-158.53689)"
         d="m 392.96838,532.0475 a 3.59373,3.59373 0 0 1 0,-5.08271 l -1.32521,1.32521 a 3.5940293,3.5940293 0 1 0 5.08272,5.08273 l 1.32522,-1.32522 a 3.59375,3.59375 0 0 1 -5.08273,-10e-6 z"
         inkscape:connector-curvature="0"
         style="opacity:0.2" />
      <path
         id="path965"
         transform="translate(-153.84583,-158.53689)"
         d="m 415.39517,556.92085 a 3.59374,3.59374 0 0 1 0,-5.08272 l -1.32517,1.32522 a 3.5940258,3.5940258 0 1 0 5.08272,5.08272 l 1.32522,-1.32522 a 3.59376,3.59376 0 0 1 -5.08277,0 z"
         inkscape:connector-curvature="0"
         style="opacity:0.2" />
      <path
         id="path967"
         transform="translate(-153.84583,-158.53689)"
         d="m 446.39919,563.24113 a 1.2254161,1.2254161 0 0 0 -1.733,-1.733 l -1.32522,1.32522 a 1.2254161,1.2254161 0 1 1 1.733,1.733 z"
         inkscape:connector-curvature="0"
         style="opacity:0.2" />
      <path
         id="path969"
         transform="translate(-153.84583,-158.53689)"
         d="m 419.78573,547.44758 a 3.02625,3.02625 0 0 1 -4.96957,-3.21417 l -1.32522,1.32522 a 3.02625,3.02625 0 0 0 4.96957,3.21417 z"
         inkscape:connector-curvature="0"
         style="opacity:0.2" />
      <path
         id="path971"
         transform="translate(-153.84583,-158.53689)"
         d="m 433.64956,568.03944 a 3.02709,3.02709 0 0 1 0,-4.28147 l 4.93694,-5.46093 -1.32521,1.32522 -4.93695,5.46093 a 3.02746,3.02746 0 1 0 4.28148,4.28147 l 5.30088,-5.097 1.32521,-1.32522 -5.30087,5.097 a 3.0271,3.0271 0 0 1 -4.28148,0 z"
         inkscape:connector-curvature="0"
         style="opacity:0.2" />
      <path
         id="path973"
         transform="translate(-153.84583,-158.53689)"
         d="m 446.90175,583.33043 a 3.01751,3.01751 0 0 1 -0.88382,-2.20292 l -0.66669,0.66669 a 3.5940293,3.5940293 0 1 1 -5.08272,-5.08273 l 0.55557,-0.55557 a 3.02369,3.02369 0 0 1 -1.97559,-5.1602 l 6.11639,-6.32027 -1.32522,1.32521 -6.11639,6.32028 a 3.02369,3.02369 0 0 0 1.97559,5.1602 l -0.55557,0.55557 a 3.5940293,3.5940293 0 1 0 5.08272,5.08273 l 0.6667,-0.66669 a 3.02525,3.02525 0 0 0 5.16529,2.20292 l 1.32522,-1.32522 a 3.02708,3.02708 0 0 1 -4.28148,0 z"
         inkscape:connector-curvature="0"
         style="opacity:0.2" />
      <path
         id="path975"
         transform="translate(-153.84583,-158.53689)"
         d="m 426.106,560.49589 a 3.02038,3.02038 0 0 0 -3.364,-3.364 3.01685,3.01685 0 0 1 -0.842,-1.63308 l -1.32522,1.32522 a 5.80371,5.80371 0 0 1 4.20605,4.9971 3.02709,3.02709 0 0 0 4.28147,0 l 5.359,-5.03889 1.32522,-1.32522 -5.359,5.03889 a 3.0271,3.0271 0 0 1 -4.28152,-2e-5 z"
         inkscape:connector-curvature="0"
         style="opacity:0.2" />
      <path
         id="path977"
         transform="translate(-153.84583,-158.53689)"
         d="m 441.24408,555.63946 a 2.0082,2.0082 0 1 0 -2.84,-2.84 l -1.32522,1.32522 a 2.0082,2.0082 0 1 1 2.84,2.84 z"
         inkscape:connector-curvature="0"
         style="opacity:0.2" />
      <rect
         id="rect979"
         transform="rotate(45,530.05423,268.30113)"
         height="3.8924501"
         width="0.72082001"
         y="531.33173"
         x="415.24579"
         style="fill:#3f3d56" />
      <rect
         id="rect981"
         transform="rotate(45,541.16569,276.45634)"
         height="3.8924501"
         width="0.72082001"
         y="539.48688"
         x="426.35724"
         style="fill:#3f3d56" />
      <rect
         id="rect983"
         transform="rotate(45,552.16568,270.45633)"
         height="3.8924501"
         width="0.72082001"
         y="533.48688"
         x="437.35724"
         style="fill:#3f3d56" />
      <rect
         id="rect985"
         transform="rotate(45,518.12726,275.02917)"
         height="3.8924501"
         width="0.72082001"
         y="538.05975"
         x="403.31882"
         style="fill:#3f3d56" />
      <rect
         id="rect987"
         transform="rotate(79.67891,447.04524,383.42418)"
         height="3.8924501"
         width="0.72082001"
         y="552.94299"
         x="428.59991"
         style="fill:#3f3d56" />
      <rect
         id="rect989"
         transform="rotate(79.67891,463.04524,376.42417)"
         height="3.8924501"
         width="0.72082001"
         y="545.94299"
         x="444.59991"
         style="fill:#3f3d56" />
      <rect
         id="rect991"
         transform="rotate(-6.64807,-1033.5607,1770.6802)"
         height="3.8924501"
         width="0.72082001"
         y="523.58429"
         x="407.80417"
         style="fill:#3f3d56" />
      <rect
         id="rect993"
         transform="rotate(-6.64807,-1042.0217,1767.9278)"
         height="3.8924501"
         width="0.72082001"
         y="520.83191"
         x="399.34314"
         style="fill:#3f3d56" />
      <rect
         id="rect995"
         transform="rotate(45,538.4133,263.71384)"
         height="3.8924501"
         width="0.72082001"
         y="526.74438"
         x="423.60486"
         style="fill:#ffffff" />
      <rect
         id="rect997"
         transform="rotate(45,559.4133,277.71384)"
         height="3.8924501"
         width="0.72082001"
         y="540.74438"
         x="444.60486"
         style="fill:#ffffff" />
      <rect
         id="rect999"
         transform="rotate(45,567.41331,297.71385)"
         height="3.8924501"
         width="0.72082001"
         y="560.74438"
         x="452.60486"
         style="fill:#ffffff" />
      <rect
         id="rect1001"
         transform="rotate(45,510.27788,263.91772)"
         height="3.8924501"
         width="0.72082001"
         y="526.9483"
         x="395.46942"
         style="fill:#ffffff" />
      <rect
         id="rect1003"
         transform="rotate(71.64397,463.58995,360.38578)"
         height="3.8924501"
         width="0.72082001"
         y="544.27808"
         x="430.33289"
         style="fill:#ffffff" />
      <rect
         id="rect1005"
         transform="rotate(71.64397,451.05134,368.23516)"
         height="3.8924501"
         width="0.72082001"
         y="552.12744"
         x="417.79428"
         style="fill:#ffffff" />
      <rect
         id="rect1007"
         transform="rotate(-3.44079,-2297.614,3024.9564)"
         height="3.8924501"
         width="0.72082001"
         y="541.21985"
         x="418.1001"
         style="fill:#ffffff" />
      <rect
         id="rect1009"
         transform="rotate(-3.44079,-2295.7791,3002.9373)"
         height="3.8924501"
         width="0.72082001"
         y="519.20087"
         x="419.93503"
         style="fill:#ffffff" />
      <rect
         id="rect1011"
         transform="rotate(45,537.29196,272.58262)"
         height="3.8924501"
         width="0.72082001"
         y="535.61316"
         x="422.48352"
         style="fill:#ff6584" />
      <rect
         id="rect1013"
         transform="rotate(45,561.29197,306.58262)"
         height="3.8924501"
         width="0.72082001"
         y="569.61316"
         x="446.48352"
         style="fill:#ff6584" />
      <rect
         id="rect1015"
         transform="rotate(45,565.29197,289.58262)"
         height="3.8924501"
         width="0.72082001"
         y="552.61316"
         x="450.48352"
         style="fill:#ff6584" />
      <rect
         id="rect1017"
         transform="rotate(15,934.16079,-131.09359)"
         height="3.8924501"
         width="0.72082001"
         y="530.51617"
         x="408.61969"
         style="fill:#ff6584" />
      <rect
         id="rect1019"
         transform="rotate(15,957.19923,-132.11297)"
         height="3.8924501"
         width="0.72082001"
         y="529.49677"
         x="431.65811"
         style="fill:#ff6584" />
      <rect
         id="rect1021"
         transform="rotate(15,953.52938,-141.28758)"
         height="3.8924501"
         width="0.72082001"
         y="520.3222"
         x="427.98828"
         style="fill:#ff6584" />
      <rect
         id="rect1023"
         transform="rotate(45,521.59321,255.04895)"
         height="3.8924501"
         width="0.72082001"
         y="518.07953"
         x="406.78476"
         style="fill:#ff6584" />
      <path
         id="path1025"
         transform="translate(-153.84583,-158.53689)"
         d="m 929.22634,365.46674 a 8,8 0 1 0 -16,0 V 724.1138 a 8,8 0 0 0 16,0 V 367.79027"
         inkscape:connector-curvature="0"
         style="fill:#3f3d56" />
      <path
         id="path1027"
         transform="translate(-153.84583,-158.53689)"
         d="m 1031.2764,384.50023 a 120.36217,120.36217 0 0 0 -221.22001,92.29 h 14.93 c 3,0 5.46,3.34 5.46,7.43 h 2.74 c 3.01,0 5.47,3.34 5.47,7.43 0,4.08 -2.46,7.43 -5.47,7.43 h -2.74 a 10.08719,10.08719 0 0 1 -0.18994,1.85 h 12.5 c 3.01,0 5.47,3.35 5.47,7.43 0,4.09 -2.46,7.43 -5.47,7.43 h -11.94 a 120.34008,120.34008 0 0 0 200.45995,-131.29 z m -81.86001,99.74005 a 49.676,49.676 0 0 1 -24.52,6.42 51.4728,51.4728 0 0 1 -5.15,-0.26 49.849,49.849 0 1 1 29.67,-6.16 z"
         inkscape:connector-curvature="0"
         style="fill:#58b2e4" />
      <path
         id="path1029"
         transform="translate(-153.84583,-158.53689)"
         d="m 847.89894,505.86168 a 9.73571,9.73571 0 0 0 0.3274,-2.5 c 0,-4.08576 -2.46118,-7.42859 -5.46936,-7.42859 h -5.11658 a 5.2394,5.2394 0 0 1 -4.45483,3.14288 h -2.73475 a 9.75369,9.75369 0 0 1 -0.19555,1.85712 H 842.757 c 2.36216,0 4.3812,2.06491 5.14194,4.92859 z"
         inkscape:connector-curvature="0"
         style="opacity:0.2" />
      <path
         id="path1031"
         transform="translate(-153.84583,-158.53689)"
         d="m 833.18557,484.21879 c 2.36206,0 4.3811,2.065 5.14184,4.92859 a 9.73038,9.73038 0 0 0 0.32752,-2.5 c 0,-4.08575 -2.46131,-7.42859 -5.46936,-7.42859 h -2.73475 c 0,-4.08569 -2.46118,-7.42852 -5.46936,-7.42852 h -14.92578 a 120.18149,120.18149 0 0 1 -5.436,-33.67182 c -0.0195,0.88953 -0.0446,1.77765 -0.0446,2.67182 a 120.27579,120.27579 0 0 0 5.48059,36 h 14.92578 c 3.00818,0 5.46936,3.34283 5.46936,7.42852 z"
         inkscape:connector-curvature="0"
         style="opacity:0.2" />
      <path
         id="path1033"
         transform="translate(-153.84583,-158.53689)"
         d="m 924.90065,556.11589 a 120.01732,120.01732 0 0 1 -89.86987,-40.32562 h -4.2185 a 120.3234,120.3234 0 0 0 214.41402,-75 c 0,-0.75226 -0.021,-1.49951 -0.035,-2.24848 a 120.32312,120.32312 0 0 1 -120.29075,117.5741 z"
         inkscape:connector-curvature="0"
         style="opacity:0.2" />
      <path
         id="path1035"
         transform="translate(-153.84583,-158.53689)"
         d="m 924.89632,380.92027 a 59.87,59.87 0 1 0 59.88007,59.87 59.94091,59.94091 0 0 0 -59.88007,-59.87 z m 24.52,103.32 a 49.676,49.676 0 0 1 -24.52,6.42 51.4728,51.4728 0 0 1 -5.15,-0.26 49.849,49.849 0 1 1 29.67,-6.16 z"
         inkscape:connector-curvature="0"
         style="opacity:0.2" />
      <path
         id="path1037"
         transform="translate(-153.84583,-158.53689)"
         d="m 1031.2755,382.50229 v 20.01591 a 7.31884,7.31884 0 0 1 -12.6045,5.06761 v 2.281 a 8.69485,8.69485 0 1 1 -17.3897,0 V 407.966 a 7.315,7.315 0 0 1 -12.20697,-5.44778 l -0.34877,-21.275 V 376.336 a 2.96454,2.96454 0 1 0 -5.92908,0 v 4.90719 l -0.34877,17.78727 a 7.32417,7.32417 0 0 1 -14.64834,0 l -0.89634,-17.78727 v -9.09239 a 4.858365,4.858365 0 0 0 -9.71673,0 v 9.09243 l -0.54757,17.78727 a 7.31856,7.31856 0 0 1 -13.07887,4.52 7.30445,7.30445 0 0 1 -9.98877,1.4509 v 4.86534 a 8.69483,8.69483 0 0 1 -17.38966,0 v -15.02148 a 7.32125,7.32125 0 0 1 -13.99963,3.0029 v 12.01862 a 8.69484,8.69484 0 0 1 -17.38967,0 v -28.62355 h -0.0488 v 28.62355 a 8.69483,8.69483 0 1 1 -17.38966,0 V 397.9493 a 7.31974,7.31974 0 0 1 -13.9508,-3.104 v -13.602 h -0.74637 v 24.43831 a 8.69483,8.69483 0 0 1 -17.38966,0 v -10.83635 a 7.32417,7.32417 0 0 1 -14.64834,0 v -16.12365 a 120.36764,120.36764 0 0 1 210.657,3.78068 z"
         inkscape:connector-curvature="0"
         style="fill:#e6e6e6" />
      <path
         id="path1039"
         transform="translate(-153.84583,-158.53689)"
         d="m 876.0485,414.37637 a 8.69412,8.69412 0 0 1 -8.69481,-8.69483 v 4.534 a 8.69483,8.69483 0 0 0 17.38966,0 v -4.534 a 8.69416,8.69416 0 0 1 -8.69485,8.69483 z"
         inkscape:connector-curvature="0"
         style="opacity:0.2" />
      <path
         id="path1041"
         transform="translate(-153.84583,-158.53689)"
         d="m 893.487,414.37637 a 8.69413,8.69413 0 0 1 -8.69481,-8.69483 v 4.534 a 8.694835,8.694835 0 0 0 17.38967,0 v -4.534 a 8.69417,8.69417 0 0 1 -8.69486,8.69483 z"
         inkscape:connector-curvature="0"
         style="opacity:0.2" />
      <path
         id="path1043"
         transform="translate(-153.84583,-158.53689)"
         d="m 867.35369,393.76406 a 7.31974,7.31974 0 0 1 -13.9508,-3.104 v 4.534 a 7.31974,7.31974 0 0 0 13.9508,3.104 z"
         inkscape:connector-curvature="0"
         style="opacity:0.2" />
      <rect
         id="rect1045"
         height="4.5340099"
         width="0.048829999"
         y="218.5211"
         x="730.89752"
         style="opacity:0.2" />
      <path
         id="path1047"
         transform="translate(-153.84583,-158.53689)"
         d="m 835.26686,390.66 a 7.32417,7.32417 0 0 1 -14.64834,0 v 4.534 a 7.32417,7.32417 0 0 0 14.64834,0 z"
         inkscape:connector-curvature="0"
         style="opacity:0.2" />
      <rect
         id="rect1049"
         height="4.5340099"
         width="0.74637002"
         y="218.5211"
         x="698.81067"
         style="opacity:0.2" />
      <path
         id="path1051"
         transform="translate(-153.84583,-158.53689)"
         d="m 843.96167,410.19114 a 8.69413,8.69413 0 0 1 -8.69481,-8.69484 v 4.534 a 8.69483,8.69483 0 0 0 17.38966,0 v -4.534 a 8.69417,8.69417 0 0 1 -8.69485,8.69484 z"
         inkscape:connector-curvature="0"
         style="opacity:0.2" />
      <path
         id="path1053"
         transform="translate(-153.84583,-158.53689)"
         d="m 924.87628,414.37637 a 8.69412,8.69412 0 0 1 -8.6948,-8.69483 v 4.534 a 8.69483,8.69483 0 1 0 17.38966,0 v -4.534 a 8.69417,8.69417 0 0 1 -8.69486,8.69483 z"
         inkscape:connector-curvature="0"
         style="opacity:0.2" />
      <path
         id="path1055"
         transform="translate(-153.84583,-158.53689)"
         d="m 988.72561,372.1508 a 2.96454,2.96454 0 1 0 -5.92908,0 v 4.534 a 2.96454,2.96454 0 1 1 5.92908,0 z"
         inkscape:connector-curvature="0"
         style="opacity:0.2" />
      <path
         id="path1057"
         transform="translate(-153.84583,-158.53689)"
         d="m 916.18148,390.66 a 7.32125,7.32125 0 0 1 -13.99963,3.0029 v 4.534 a 7.32125,7.32125 0 0 0 13.99963,-3.0029 z"
         inkscape:connector-curvature="0"
         style="opacity:0.2" />
      <path
         id="path1059"
         transform="translate(-153.84583,-158.53689)"
         d="m 975.12359,402.16943 a 7.32328,7.32328 0 0 1 -7.32417,-7.32417 l -0.89636,-17.78727 v 4.534 l 0.89636,17.78727 a 7.32417,7.32417 0 0 0 14.64834,0 l 0.34877,-17.78727 v -4.534 l -0.34877,17.78727 a 7.32328,7.32328 0 0 1 -7.32417,7.32417 z"
         inkscape:connector-curvature="0"
         style="opacity:0.2" />
      <path
         id="path1061"
         transform="translate(-153.84583,-158.53689)"
         d="m 1023.9514,405.65713 a 7.30018,7.30018 0 0 1 -5.2804,-2.25656 v 2.281 a 8.69485,8.69485 0 1 1 -17.3897,0 v -1.9008 a 7.315,7.315 0 0 1 -12.20697,-5.44778 l -0.34877,-21.275 v 4.534 l 0.34877,21.275 a 7.315,7.315 0 0 0 12.20697,5.44778 v 1.9008 a 8.69485,8.69485 0 0 0 17.3897,0 v -2.281 a 7.31884,7.31884 0 0 0 12.6045,-5.06761 v -4.534 a 7.32328,7.32328 0 0 1 -7.3241,7.32417 z"
         inkscape:connector-curvature="0"
         style="opacity:0.2" />
      <path
         id="path1063"
         transform="translate(-153.84583,-158.53689)"
         d="m 949.31462,402.16943 a 7.3063,7.3063 0 0 1 -5.75471,-2.80413 7.30445,7.30445 0 0 1 -9.98877,1.4509 v 4.534 a 7.30445,7.30445 0 0 0 9.98877,-1.4509 7.31856,7.31856 0 0 0 13.07887,-4.52 l 0.5476,-17.78727 v -4.534 l -0.5476,17.78727 a 7.32327,7.32327 0 0 1 -7.32416,7.32413 z"
         inkscape:connector-curvature="0"
         style="opacity:0.2" />
      <path
         id="path1065"
         transform="translate(-153.84583,-158.53689)"
         d="m 966.90306,367.96556 a 4.85834,4.85834 0 1 0 -9.71668,0 v 4.534 a 4.85834,4.85834 0 1 1 9.71668,0 z"
         inkscape:connector-curvature="0"
         style="opacity:0.2" />
      <rect
         id="rect1067"
         height="9.41679"
         width="1.74385"
         y="210.32501"
         x="730.0744"
         style="fill:#3f3d56" />
      <rect
         id="rect1069"
         height="9.41679"
         width="1.74385"
         y="205.26785"
         x="763.0332"
         style="fill:#3f3d56" />
      <rect
         id="rect1071"
         height="9.41679"
         width="1.74385"
         y="210.84818"
         x="855.10846"
         style="fill:#3f3d56" />
      <rect
         id="rect1073"
         height="9.41679"
         width="1.74385"
         y="242.23746"
         x="721.18079"
         style="fill:#3f3d56" />
      <rect
         id="rect1075"
         transform="rotate(34.67891,1121.5691,62.053683)"
         height="9.41679"
         width="1.74385"
         y="382.98709"
         x="943.73431"
         style="fill:#3f3d56" />
      <rect
         id="rect1077"
         transform="rotate(-51.64807,618.08665,452.73119)"
         height="9.41679"
         width="1.74385"
         y="368.33875"
         x="857.93689"
         style="fill:#3f3d56" />
      <rect
         id="rect1079"
         transform="rotate(-51.64807,720.62499,417.50542)"
         height="9.41679"
         width="1.74385"
         y="333.11298"
         x="960.47522"
         style="fill:#3f3d56" />
      <rect
         id="rect1081"
         transform="matrix(0.62049,-0.78421,0.78421,0.62049,-135.40643,645.19143)"
         height="9.41679"
         width="1.74385"
         y="378.10431"
         x="838.75458"
         style="fill:#3f3d56" />
      <rect
         id="rect1083"
         height="9.41679"
         width="1.74385"
         y="188.17812"
         x="736.52667"
         style="fill:#ffffff" />
      <rect
         id="rect1085"
         height="9.41679"
         width="1.74385"
         y="236.65714"
         x="688.74518"
         style="fill:#ffffff" />
      <rect
         id="rect1087"
         height="9.41679"
         width="1.74385"
         y="174.5761"
         x="770.35736"
         style="fill:#ffffff" />
      <rect
         id="rect1089"
         height="9.41679"
         width="1.74385"
         y="233.5182"
         x="854.06213"
         style="fill:#ffffff" />
      <rect
         id="rect1091"
         transform="rotate(26.64397,1190.5803,-34.210306)"
         height="9.41679"
         width="1.74385"
         y="365.19983"
         x="931.8761"
         style="fill:#ffffff" />
      <rect
         id="rect1093"
         transform="rotate(26.64397,1182.5586,0.66667391)"
         height="9.41679"
         width="1.74385"
         y="400.07681"
         x="923.85443"
         style="fill:#ffffff" />
      <rect
         id="rect1095"
         transform="rotate(26.64397,1278.8191,-15.027972)"
         height="9.41679"
         width="1.74385"
         y="384.38217"
         x="1020.1149"
         style="fill:#ffffff" />
      <rect
         id="rect1097"
         transform="rotate(-48.44079,653.45479,477.33283)"
         height="9.41679"
         width="1.74385"
         y="380.89447"
         x="905.71838"
         style="fill:#ffffff" />
      <rect
         id="rect1099"
         transform="rotate(-48.44079,618.92658,436.52676)"
         height="9.41679"
         width="1.74385"
         y="340.08838"
         x="871.19019"
         style="fill:#ffffff" />
      <rect
         id="rect1101"
         transform="rotate(-48.44079,733.67187,452.22141)"
         height="9.41679"
         width="1.74385"
         y="355.78302"
         x="985.93542"
         style="fill:#ffffff" />
      <rect
         id="rect1103"
         transform="rotate(-48.44079,691.47071,421.52966)"
         height="9.41679"
         width="1.74385"
         y="325.09128"
         x="943.73431"
         style="fill:#ffffff" />
      <rect
         id="rect1105"
         height="9.41679"
         width="1.74385"
         y="205.26785"
         x="749.77991"
         style="fill:#ff6584" />
      <rect
         id="rect1107"
         transform="rotate(23.00391,1313.7329,-83.545899)"
         height="9.41679"
         width="1.74385"
         y="369.03629"
         x="1000.235"
         style="fill:#ff6584" />
      <rect
         id="rect1109"
         transform="rotate(-30,499.3053,591.32201)"
         height="9.41679"
         width="1.74385"
         y="378.80185"
         x="871.19019"
         style="fill:#ff6584" />
      <rect
         id="rect1111"
         transform="rotate(-30,599.0535,584.69538)"
         height="9.41679"
         width="1.74385"
         y="372.17523"
         x="970.93835"
         style="fill:#ff6584" />
      <rect
         id="rect1113"
         transform="rotate(-30,536.97245,550.16717)"
         height="9.41679"
         width="1.74385"
         y="337.647"
         x="908.8573"
         style="fill:#ff6584" />
      <rect
         id="rect1115"
         transform="rotate(-30,610.91168,548.42331)"
         height="9.41679"
         width="1.74385"
         y="335.90314"
         x="982.79651"
         style="fill:#ff6584" />
      <rect
         id="rect1117"
         transform="rotate(-30,514.99995,540.75038)"
         height="9.41679"
         width="1.74385"
         y="328.23022"
         x="886.88483"
         style="fill:#ff6584" />
      <rect
         id="rect1119"
         height="9.41679"
         width="1.74385"
         y="186.43428"
         x="793.37616"
         style="fill:#ff6584" />
      <rect
         id="rect1121"
         height="9.41679"
         width="1.74385"
         y="202.12892"
         x="692.93042"
         style="fill:#ff6584" />
      <circle
         id="circle1123"
         r="42.012329"
         cy="504.17743"
         cx="354.25769"
         style="fill:#2f2e41" />
      <rect
         id="rect1125"
         transform="rotate(169.73894,458.76692,617.96105)"
         height="22.86747"
         width="12.76324"
         y="692.70227"
         x="522.1911"
         style="fill:#2f2e41" />
      <rect
         id="rect1127"
         transform="rotate(169.73894,433.6487,622.50817)"
         height="22.86747"
         width="12.76324"
         y="697.24939"
         x="497.07288"
         style="fill:#2f2e41" />
      <ellipse
         id="ellipse1129"
         transform="rotate(-40.26106,210.12408,853.34924)"
         ry="3.9885099"
         rx="10.63603"
         cy="722.76251"
         cx="503.30106"
         style="fill:#2f2e41" />
      <ellipse
         id="ellipse1131"
         transform="rotate(-40.26106,234.719,848.89685)"
         ry="3.9885099"
         rx="10.63603"
         cy="718.31012"
         cx="527.896"
         style="fill:#2f2e41" />
      <circle
         id="circle1133"
         r="14.35865"
         cy="493.90097"
         cx="351.31647"
         style="fill:#ffffff" />
      <circle
         id="circle1135"
         r="4.7862201"
         cy="488.75418"
         cx="345.4151"
         style="fill:#3f3d56" />
      <path
         id="path1137"
         transform="translate(-153.84583,-158.53689)"
         d="m 541.24539,617.00941 c 0.63179,-15.55359 -12.77316,-28.72759 -29.94081,-29.42494 -17.16765,-0.69735 -31.59693,11.346 -32.22872,26.89959 -0.63179,15.55359 11.3019,19.08749 28.46954,19.78485 17.16764,0.69736 33.06819,-1.70591 33.69999,-17.2595 z"
         inkscape:connector-curvature="0"
         style="fill:#cfcce0" />
      <ellipse
         id="ellipse1139"
         transform="rotate(-77.0899,292.89425,672.34172)"
         ry="21.00617"
         rx="6.59448"
         cy="655.06036"
         cx="469.31094"
         style="fill:#2f2e41" />
      <ellipse
         id="ellipse1141"
         transform="rotate(-77.0899,375.36287,686.05612)"
         ry="21.00617"
         rx="6.59448"
         cy="668.77478"
         cx="551.77954"
         style="fill:#2f2e41" />
      <path
         id="path1143"
         transform="translate(-153.84583,-158.53689)"
         d="m 519.64223,679.27086 a 9.57243,9.57243 0 1 1 -18.83866,3.41034 c -0.94174,-5.20215 3.08039,-7.043 8.28255,-7.98473 5.20216,-0.94173 9.61437,-0.62777 10.55611,4.57439 z"
         inkscape:connector-curvature="0"
         style="fill:#ffffff" />
      <ellipse
         id="ellipse1145"
         transform="rotate(-69.08217,548.50052,547.03141)"
         ry="6.7600799"
         rx="21.53367"
         cy="514.5481"
         cx="740.58276"
         style="fill:#2f2e41" />
      <circle
         id="circle1147"
         r="43.067341"
         cy="512.28363"
         cx="561.64905"
         style="fill:#2f2e41" />
      <rect
         id="rect1149"
         height="23.44171"
         width="13.08375"
         y="546.08331"
         x="542.02344"
         style="fill:#2f2e41" />
      <rect
         id="rect1151"
         height="23.44171"
         width="13.08375"
         y="546.08331"
         x="568.19092"
         style="fill:#2f2e41" />
      <ellipse
         id="ellipse1153"
         ry="4.0886698"
         rx="10.90312"
         cy="569.79761"
         cx="552.92651"
         style="fill:#2f2e41" />
      <ellipse
         id="ellipse1155"
         ry="4.0886698"
         rx="10.90312"
         cy="569.25244"
         cx="579.09406"
         style="fill:#2f2e41" />
      <circle
         id="circle1157"
         r="14.71922"
         cy="501.38052"
         cx="562.73938"
         style="fill:#ffffff" />
      <circle
         id="circle1159"
         r="4.9064102"
         cy="501.38052"
         cx="562.73938"
         style="fill:#3f3d56" />
      <path
         id="path1161"
         transform="translate(-153.84583,-158.53689)"
         d="m 673.7181,630.76916 c -3.47749,-15.57379 7.63865,-31.31045 24.82859,-35.14881 17.18994,-3.83836 33.9442,5.67508 37.42169,21.24887 3.47749,15.57379 -7.91491,21.31768 -25.10485,25.156 -17.18994,3.83832 -33.66794,4.31778 -37.14543,-11.25606 z"
         inkscape:connector-curvature="0"
         style="fill:#cfcce0" />
      <circle
         id="circle1163"
         r="43.067341"
         cy="388.5332"
         cx="546.92981"
         style="fill:#2f2e41" />
      <rect
         id="rect1165"
         height="23.44171"
         width="13.08375"
         y="422.33289"
         x="527.3042"
         style="fill:#2f2e41" />
      <rect
         id="rect1167"
         height="23.44171"
         width="13.08375"
         y="422.33289"
         x="553.47168"
         style="fill:#2f2e41" />
      <ellipse
         id="ellipse1169"
         ry="4.0886698"
         rx="10.90312"
         cy="446.04718"
         cx="538.20734"
         style="fill:#2f2e41" />
      <ellipse
         id="ellipse1171"
         ry="4.0886698"
         rx="10.90312"
         cy="445.50204"
         cx="564.37482"
         style="fill:#2f2e41" />
      <circle
         id="circle1173"
         r="14.71922"
         cy="377.6301"
         cx="548.02014"
         style="fill:#ffffff" />
      <circle
         id="circle1175"
         r="4.9064102"
         cy="377.6301"
         cx="548.02014"
         style="fill:#3f3d56" />
      <path
         id="path1177"
         transform="translate(-153.84583,-158.53689)"
         d="m 658.99888,507.01872 c -3.47749,-15.57379 7.63865,-31.31045 24.82859,-35.14882 17.18994,-3.83837 33.9442,5.67509 37.42169,21.24888 3.47749,15.57379 -7.91491,21.31767 -25.10485,25.156 -17.18994,3.83833 -33.66794,4.31773 -37.14543,-11.25606 z"
         inkscape:connector-curvature="0"
         style="fill:#cfcce0" />
      <ellipse
         id="ellipse1179"
         transform="rotate(-64.62574,450.01662,569.43774)"
         ry="21.53367"
         rx="6.7600799"
         cy="527.08667"
         cx="652.26746"
         style="fill:#2f2e41" />
      <path
         id="path1181"
         transform="translate(-153.84583,-158.53689)"
         d="m 679.62111,562.60705 c 0,4.21514 10.8533,12.53859 22.89656,12.53859 12.04326,0 23.33517,-11.867 23.33517,-16.08211 0,-4.21511 -11.29191,0.81774 -23.33517,0.81774 -12.04326,0 -22.89656,-1.48936 -22.89656,2.72578 z"
         inkscape:connector-curvature="0"
         style="fill:#ffffff" />
      <circle
         id="circle1183"
         r="6"
         cy="441.68976"
         cx="672.69739"
         style="fill:#58b2e4" />
      <circle
         id="circle1185"
         r="6"
         cy="393.25339"
         cx="689.03955"
         style="fill:#58b2e4" />
      <circle
         id="circle1187"
         r="6"
         cy="368.49466"
         cx="674.09686"
         style="fill:#58b2e4" />
      <rect
         id="rect1189"
         transform="matrix(-0.26644,-0.96385,0.96385,-0.26644,171.68106,1485.0938)"
         height="21.701851"
         width="12.11266"
         y="687.08917"
         x="782.17041"
         style="fill:#2f2e41" />
      <ellipse
         id="ellipse1191"
         transform="matrix(0.96385,-0.26644,0.26644,0.96385,-312.07457,73.19284)"
         ry="10.09388"
         rx="3.7852099"
         cy="699.00403"
         cx="774.90668"
         style="fill:#2f2e41" />
      <ellipse
         id="ellipse1193"
         transform="rotate(-82.28111,668.31527,662.78371)"
         ry="6.2583399"
         rx="19.935419"
         cy="653.99963"
         cx="835.97565"
         style="fill:#2f2e41" />
      <circle
         id="circle1195"
         r="39.870838"
         cy="532.78418"
         cx="678.22681"
         style="fill:#2f2e41" />
      <rect
         id="rect1197"
         transform="matrix(-0.26644,-0.96385,0.96385,-0.26644,178.49137,1476.1455)"
         height="21.701851"
         width="12.11266"
         y="680.02344"
         x="782.17041"
         style="fill:#2f2e41" />
      <ellipse
         id="ellipse1199"
         transform="rotate(-15.45227,113.70896,1179.656)"
         ry="10.09388"
         rx="3.7852099"
         cy="691.93829"
         cx="774.90668"
         style="fill:#2f2e41" />
      <circle
         id="circle1201"
         r="13.62674"
         cy="509.94354"
         cx="688.69629"
         style="fill:#ffffff" />
      <circle
         id="circle1203"
         r="4.5422502"
         cy="503.92401"
         cx="693.05402"
         style="fill:#3f3d56" />
      <path
         id="path1205"
         transform="translate(-153.84583,-158.53689)"
         d="m 878.11577,718.72 c 14.75449,-0.73842 26.05463,-14.53913 25.23958,-30.82474 -0.81505,-16.28561 -13.43665,-28.88909 -28.19114,-28.15067 -14.75449,0.73842 -17.06978,12.32082 -16.25473,28.60643 0.81505,16.28561 4.45181,31.10742 19.20629,30.36898 z"
         inkscape:connector-curvature="0"
         style="fill:#cfcce0" />
      <path
         id="path1207"
         transform="translate(-153.84583,-158.53689)"
         d="m 815.77755,674.45145 a 9.0844949,9.0844949 0 0 1 -1.46575,-18.10977 c 5.00088,-0.40475 6.36471,3.56543 6.76947,8.5663 0.40476,5.00087 -0.30284,9.13872 -5.30372,9.54347 z"
         inkscape:connector-curvature="0"
         style="fill:#ffffff" />
      <ellipse
         id="ellipse1209"
         transform="rotate(-82.28111,653.35022,672.25747)"
         ry="6.2583399"
         rx="19.935419"
         cy="663.47339"
         cx="821.01056"
         style="fill:#2f2e41" />
      <circle
         id="circle1211"
         r="6"
         cy="480.68976"
         cx="669.69739"
         style="fill:#58b2e4" />
      <path
         id="path1213"
         transform="translate(-153.84583,-158.53689)"
         d="m 788.579,501.2075 a 7.45358,7.45358 0 0 0 -7.43757,-8.41723 h -2.37613 a 7.42867,7.42867 0 0 0 0.87609,-3.5 7.522,7.522 0 0 0 -7.5,-7.5 h -25 a 7.5,7.5 0 0 0 0,15 h 2.3761 a 7.42921,7.42921 0 0 0 -0.8761,3.5 7.52315,7.52315 0 0 0 5.0625,7.08276 7.45306,7.45306 0 0 0 7.4375,8.41724 h 25 A 7.49413,7.49413 0 0 0 788.579,501.2075 Z"
         inkscape:connector-curvature="0"
         style="fill:#58b2e4" />
      <rect
         id="rect1215"
         transform="rotate(45,565.82362,291.61207)"
         height="4.14182"
         width="0.76700002"
         y="554.51794"
         x="450.99207"
         style="fill:#3f3d56" />
    </g>
  </g>
</svg>
