<?xml version="1.0" encoding="UTF-8" standalone="no"?>
<!-- Created with Inkscape (http://www.inkscape.org/) -->

<svg
   xmlns:dc="http://purl.org/dc/elements/1.1/"
   xmlns:cc="http://creativecommons.org/ns#"
   xmlns:rdf="http://www.w3.org/1999/02/22-rdf-syntax-ns#"
   xmlns:svg="http://www.w3.org/2000/svg"
   xmlns="http://www.w3.org/2000/svg"
   xmlns:sodipodi="http://sodipodi.sourceforge.net/DTD/sodipodi-0.dtd"
   xmlns:inkscape="http://www.inkscape.org/namespaces/inkscape"
   width="60.373356mm"
   height="89.053963mm"
   viewBox="0 0 60.373356 89.053963"
   version="1.1"
   id="svg8"
   inkscape:version="0.92.4 (5da689c313, 2019-01-14)"
   sodipodi:docname="Illus_Dog.svg">
  <defs
     id="defs2">
	
	

		
	
			
			
			
			
			
			
			
			
			
			
			
			
			
			
			
			
			
			
			
			
			
			
			
			
			
			
			
			
			
			
			
		</defs>
  <sodipodi:namedview
     id="base"
     pagecolor="#ffffff"
     bordercolor="#666666"
     borderopacity="1.0"
     inkscape:pageopacity="0.0"
     inkscape:pageshadow="2"
     inkscape:zoom="0.98994949"
     inkscape:cx="2.688168"
     inkscape:cy="53.057986"
     inkscape:document-units="mm"
     inkscape:current-layer="layer1"
     showgrid="false"
     inkscape:window-width="2560"
     inkscape:window-height="1377"
     inkscape:window-x="2552"
     inkscape:window-y="-8"
     inkscape:window-maximized="1" />
  <metadata
     id="metadata5">
    <rdf:RDF>
      <cc:Work
         rdf:about="">
        <dc:format>image/svg+xml</dc:format>
        <dc:type
           rdf:resource="http://purl.org/dc/dcmitype/StillImage" />
        <dc:title></dc:title>
      </cc:Work>
    </rdf:RDF>
  </metadata>
  <g
     inkscape:label="Layer 1"
     inkscape:groupmode="layer"
     id="layer1"
     transform="translate(-96.541001,-163.01876)">
    <g
       id="g1038">
      <path
         id="path817"
         d="m 150.67186,236.12298 c 0.8599,-0.0397 1.46315,0.49741 2.11667,0.94985 1.69598,1.1721 2.64583,2.88925 3.37873,4.76515 0.12171,0.3122 0.16933,0.68527 0.14817,1.02129 -0.0529,0.89429 0.1852,1.72773 0.42862,2.56646 0.0688,0.23548 0.13758,0.47625 0.1614,0.71966 0.0317,0.34925 -0.008,0.66675 -0.33867,0.90488 -1.53723,1.11389 -3.16706,1.95262 -5.1091,1.94998 -0.63236,0 -1.26207,-0.0132 -1.89442,-0.0847 -1.27265,-0.14287 -2.50031,0.25665 -3.7465,0.42333 -0.77258,0.10319 -1.52665,-0.0185 -2.27806,-0.0741 -0.86784,-0.0661 -1.46315,0.13494 -1.80446,1.01071 -0.16934,0.43656 -0.508,0.76464 -0.98954,0.88106 -0.48684,-1.4896 -1.69069,-1.92352 -3.03213,-2.16694 -0.61912,-0.11112 -1.22767,-0.28045 -1.78594,-0.59266 -0.55562,-0.31221 -1.15887,-0.49477 -1.75418,-0.70379 -1.0213,-0.35984 -2.05317,-0.70909 -2.89984,-1.44198 -0.74877,-0.64823 -1.37054,-1.40494 -1.90235,-2.24367 -0.2249,-0.43656 -0.45508,-0.86783 -0.67469,-1.30704 -0.36248,-0.71702 -0.60854,-1.4949 -1.10067,-2.14048 -0.79639,-1.04775 -1.68804,-2.03465 -2.08756,-3.34169 -0.43656,-0.80962 -0.69321,-1.69069 -0.99748,-2.55587 -0.24606,-0.69586 -0.55298,-1.35996 -0.87312,-2.02142 -0.40746,-0.84931 -1.016,-1.44198 -1.905,-1.77271 -1.33615,-0.50006 -2.67494,-0.99483 -4.04019,-1.40758 -0.16933,-0.0503 -0.33867,-0.10054 -0.51858,-0.0661 -0.0265,-0.20902 0.0767,-0.38629 0.13229,-0.57414 0.28839,-0.99484 0.70644,-1.95527 0.76729,-3.01096 0.34131,-0.10583 0.29633,-0.44186 0.37042,-0.69056 0.57414,-1.9738 0.61383,-4.0058 0.59266,-6.04309 -0.003,-0.19579 -0.005,-0.38893 -0.20108,-0.51858 -0.1561,0.17727 -0.09,0.36512 -0.09,0.53446 -0.005,1.42346 0.0529,2.85221 -0.20902,4.25714 -0.11112,0.60325 -0.12171,1.24619 -0.50006,1.77536 -0.0847,-0.38894 -0.28046,-0.72231 -0.45773,-1.07156 -0.35454,-0.69586 -0.80963,-1.35203 -0.83344,-2.19075 -0.008,-0.31486 -0.24606,-0.51594 -0.50006,-0.69057 -0.889,-0.60589 -0.86519,-0.59531 -1.54781,0.28311 -0.73554,0.94456 -1.34673,1.98702 -2.159,2.87073 -0.30427,0.33073 -0.65352,0.53181 -1.1139,0.49212 -0.35983,-0.0291 -0.65352,0.11377 -0.9181,0.36777 -0.53446,0.51065 -1.02129,1.05834 -1.42081,1.69069 -0.20638,0.32808 -0.36248,0.6985 -0.67205,0.9525 -0.0106,-1.37848 -0.003,-2.75696 -0.0344,-4.13279 -0.0159,-0.62442 -0.11377,-1.24884 -0.17198,-1.87325 0.16933,-0.0873 0.13494,-0.22225 0.11377,-0.381 -0.12435,-1.00542 -0.36248,-1.97909 -0.71438,-2.92365 -0.71966,-1.92881 -1.60866,-3.75708 -2.97127,-5.31548 -1.02658,-1.1721 -2.06375,-2.34156 -2.68816,-3.81264 -0.0556,-0.13229 -0.15082,-0.15875 -0.26723,-0.16669 -0.0291,-0.57944 -0.0132,-1.15094 0.0423,-1.73302 0.0767,-0.84138 -0.0767,-1.68011 -0.20637,-2.51354 -0.0238,-0.14817 -0.0662,-0.29104 -0.0291,-0.44186 0.17727,0.0212 0.26194,-0.10054 0.33602,-0.23548 0.42863,-0.76729 0.99748,-1.42875 1.5584,-2.09285 0.635,-0.75406 1.26735,-1.50813 1.90235,-2.26219 0.17463,-0.037 0.34661,-0.082 0.52388,-0.10848 1.86266,-0.29633 3.72268,-0.6006 5.52185,-1.21179 3.17236,-1.0795 6.32883,-2.19339 9.27894,-3.83381 1.2356,-0.68792 2.40771,-1.47638 3.57717,-2.27542 0.30956,0.44979 0.48683,0.96309 0.65087,1.47638 0.254,0.79639 0.65088,1.50283 1.1774,2.14312 0.5027,0.60854 0.86518,1.30969 1.19856,2.02406 1.05039,2.2569 2.33627,4.37357 3.76767,6.39234 0.89164,1.25941 2.04522,2.27012 3.2385,3.22262 3.35227,2.67494 6.27327,5.79173 8.73389,9.32392 1.82827,2.62202 3.17765,5.53773 4.43706,8.49048 1.39965,3.28348 2.36009,6.6966 3.09563,10.18381 0.0238,0.11113 0.0714,0.21961 0.10848,0.32808 -0.22754,0.0344 -0.20638,0.21167 -0.21431,0.381 -0.0291,0.84667 -0.0556,1.69069 -0.10055,2.53736 -0.0238,0.42862 -0.0688,0.85725 -0.14287,1.28058 -0.20373,1.19327 -0.44979,2.37861 -1.07421,3.43694 -0.0609,0.10319 -0.0926,0.25135 0.0212,0.31221 0.13229,0.0714 0.18785,-0.0794 0.24341,-0.17727 0.28575,-0.50271 0.49742,-1.03982 0.6694,-1.59544 0.62442,-2.00819 0.60854,-4.08517 0.67733,-6.15156 z"
         class="st0"
         inkscape:connector-curvature="0"
         style="fill:#22211f;stroke-width:0.26458332" />
      <path
         id="path823"
         d="m 100.50157,180.9256 c -0.693207,-0.53181 -1.52929,-0.762 -2.317748,-1.06098 -1.375834,-0.52123 -1.579563,-1.25941 -1.476375,-2.58498 0.06615,-0.8255 -0.0344,-1.60866 -0.137584,-2.413 -0.166687,-1.28323 0.39423,-1.83356 1.53723,-1.92087 1.854729,-0.14023 3.661837,0.20373 5.445127,0.71173 0.55562,0.15875 1.12712,0.26194 1.69598,0.36512 0.78846,0.14288 1.27529,-0.35189 1.71185,-0.90752 0.22225,-0.2831 0.39688,-0.60325 0.62177,-0.88635 0.71702,-0.90488 1.62719,-1.2065 2.72521,-0.87313 0.49742,0.15082 1.01071,0.12965 1.49754,0.0503 0.70379,-0.11641 1.39436,-0.0979 2.07169,0.0529 0.73819,0.16404 1.40494,0.0661 2.04523,-0.3175 0.0185,0.2884 -0.10319,0.55033 -0.15875,0.82285 -0.11642,0.56886 -0.21961,1.13771 -0.0317,1.71715 0.24341,-0.76994 0.24077,-1.58485 0.45508,-2.35744 0.0556,-0.19579 -0.14023,-0.17462 -0.26458,-0.18521 0.52652,-1.27529 0.57679,-2.65906 0.86783,-3.98727 0.32015,-1.46314 1.23561,-2.5982 2.08756,-3.75708 0.19315,-0.26194 0.5133,-0.4736 0.85725,-0.32808 0.36248,0.15346 0.48684,0.50271 0.48684,0.89958 -0.005,0.94986 -0.005,1.89706 -0.005,2.84692 0,0.43127 -0.0397,0.86783 0.14287,1.30439 0.635,-0.46566 1.3044,-0.90752 2.07963,-1.13506 1.11125,-0.32544 1.80445,0.19844 1.76741,1.40229 -0.0212,0.68792 -0.15875,1.37584 -0.28575,2.05317 -0.18256,0.96837 -0.21166,1.94469 -0.18521,2.92364 0.0238,0.90223 -0.0794,1.7833 -0.35454,2.6379 -0.17991,0.55563 0.13494,1.02923 0.20109,1.53988 0.17462,1.33879 0.23812,2.67493 -0.005,4.00843 -0.51064,2.80194 -0.66939,5.6224 -0.46037,8.46402 -0.21167,-0.0159 -0.36248,0.11907 -0.52388,0.23019 -0.38893,0.26988 -0.76464,0.56092 -1.16681,0.80433 -3.32052,1.98967 -6.77598,3.6883 -10.414,4.9874 -0.98425,0.3519 -1.94998,0.77788 -3.00302,0.89694 0.37306,-0.87842 0.73554,-1.75419 0.84402,-2.72786 0.0847,-0.75406 -0.0635,-1.4896 -0.0635,-2.23573 0,-1.22766 -0.20108,-2.43681 -0.35454,-3.65125 -0.0847,-0.66675 -0.20373,-1.33085 -0.0476,-2.02406 0.15345,-0.67204 0.33072,-1.34408 0.3122,-2.05052 -0.0264,-1.05833 -0.68791,-1.49225 -1.63512,-1.0451 -0.20902,0.0979 -0.38894,0.23812 -0.54504,0.41275 -0.72232,0.80962 -1.30704,1.72773 -1.94998,2.59821 -0.25665,0.34925 -0.62706,0.64293 -0.66411,1.13241 -1.07156,-1.05039 -2.4765,-1.17739 -3.83116,-1.39171 -1.688045,-0.26723 -2.502962,-1.69068 -2.852212,-3.03212 -0.07408,-0.28311 -0.02117,-0.52388 0.240771,-0.68527 0.248709,0.0106 0.473604,0.10583 0.695854,0.20373 0.772584,0.33602 1.55575,0.64293 2.370667,0.85196 0.89958,0.23018 1.80181,0.34925 2.73315,0.17462 0.42068,-0.0794 0.43656,-0.22754 0.14552,-0.48419 -0.90223,-0.78581 -1.82298,-1.53987 -2.90513,-2.05052 z m 19.70881,-12.69471 c -0.1217,0.19844 -0.10318,0.33073 -0.0661,0.46038 0.48419,1.65629 0.47096,3.37079 0.5371,5.06942 0.0476,1.18797 0.12965,2.39183 -0.16933,3.57187 -0.0291,0.11113 -0.0767,0.30692 0.0873,0.34396 0.17463,0.0397 0.17463,-0.14023 0.19579,-0.26988 0.10848,-0.65352 0.22754,-1.30439 0.19844,-1.97114 -0.0132,-0.30427 -0.003,-0.61119 -0.003,-0.95515 0.87842,0.57415 1.39171,1.44198 2.16694,2.01613 -0.40216,-0.71173 -0.88635,-1.34673 -1.50283,-1.86796 -0.24342,-0.20638 -0.57415,-0.36777 -0.65088,-0.70115 -0.0847,-0.36512 -0.11377,-0.75671 -0.10583,-1.13241 0.0265,-0.96573 -0.0529,-1.92617 -0.2196,-2.86809 -0.0953,-0.55562 -0.10055,-1.15358 -0.46832,-1.69598 z"
         class="st0"
         inkscape:connector-curvature="0"
         style="fill:#22211f;stroke-width:0.26458332" />
      <path
         id="path829"
         d="m 108.41526,227.823 c 0.30692,-0.254 0.46567,-0.62442 0.67204,-0.9525 0.39952,-0.63236 0.88635,-1.18004 1.42081,-1.69069 0.26459,-0.25135 0.55827,-0.39687 0.91811,-0.36777 0.46037,0.0397 0.80962,-0.16404 1.11389,-0.49213 0.81492,-0.88106 1.42346,-1.92352 2.159,-2.87072 0.68263,-0.87842 0.65882,-0.889 1.54782,-0.28311 0.25664,0.17463 0.49212,0.37571 0.50006,0.69056 0.0238,0.83873 0.47889,1.4949 0.83344,2.19075 0.17727,0.34925 0.3757,0.68263 0.45772,1.07157 0.0132,0.22754 0.0238,0.45773 0.037,0.68527 -0.0635,1.05568 -0.48155,2.01612 -0.7673,3.01096 -0.0556,0.18785 -0.15875,0.36512 -0.13229,0.57414 -0.40481,0.7964 -0.59002,1.67217 -0.85196,2.51883 -0.635,2.04788 -1.19062,4.12486 -2.07433,6.08277 -0.42333,0.93928 -0.37835,1.97115 -0.57414,2.9554 -0.20903,1.0451 -0.5424,2.00554 -1.37848,2.71727 -0.4498,0.381 -0.86519,0.80698 -1.31498,1.19063 -0.89959,0.76464 -1.63777,1.66952 -2.14048,2.74373 -0.67733,1.4552 -1.79123,2.06904 -3.33375,2.12725 -2.05317,0.0794 -4.07723,0.005 -6.053668,-0.62707 -0.338667,-0.10848 -0.685271,-0.22225 -0.98425,-0.40481 -0.375709,-0.23019 -0.407459,-0.67733 -0.404813,-1.06362 0.0026,-0.74348 0.240771,-1.38907 0.878417,-1.84415 0.518583,-0.36777 1.005417,-0.78581 1.500184,-1.18533 0.41275,-0.33338 0.83609,-0.62177 1.397,-0.61384 0.16405,0.003 0.35719,-0.0265 0.48684,-0.17462 0.88371,-0.0212 1.71979,-0.19579 2.32039,-0.93134 0.36248,-0.4445 0.67998,-0.92604 0.94986,-1.43933 1.05304,-1.99496 1.61396,-4.15396 1.98173,-6.36587 0.0714,-0.43392 0.22489,-0.9234 0.008,-1.38377 0.6694,-1.89971 0.64823,-3.89732 0.82815,-5.86846 z"
         class="st5"
         inkscape:connector-curvature="0"
         style="fill:#b6905c;stroke-width:0.26458332" />
      <path
         id="path837"
         d="m 129.37555,244.00491 c 0.53181,0.83873 1.15358,1.59544 1.90235,2.24367 0.84667,0.7329 1.8759,1.08479 2.89984,1.44198 0.59531,0.20902 1.19856,0.39158 1.75419,0.70379 0.55827,0.31486 1.16681,0.48154 1.78593,0.59267 1.34144,0.24077 2.54529,0.67733 3.03213,2.16694 -0.24077,0.11112 -0.49213,0.14816 -0.75671,0.14816 -2.87867,-0.003 -5.75998,-0.0714 -8.63335,0.0265 -2.03465,0.0688 -4.07194,0.2249 -6.1013,0.43921 -1.19062,0.127 -2.38654,0.33337 -3.57716,0.30162 -1.52929,-0.0423 -2.83898,-0.74348 -3.87615,-1.905 -0.42333,-0.47625 -0.35454,-1.47373 0.14288,-1.97379 0.71173,-0.71437 1.32027,-1.4896 1.81768,-2.3786 0.48419,-0.86254 1.37319,-1.10861 2.24896,-1.30969 1.2409,-0.2831 2.48709,-0.24871 3.75444,-0.13758 1.02923,0.09 2.10344,0.2196 3.10621,-0.25136 0.16669,-0.0318 0.33337,-0.0688 0.50006,-0.10848 z"
         class="st5"
         inkscape:connector-curvature="0"
         style="fill:#b6905c;stroke-width:0.26458332" />
      <path
         id="path843"
         d="m 108.00251,196.9276 c 1.05304,-0.11906 2.01612,-0.54504 3.00302,-0.89694 3.63802,-1.2991 7.09348,-2.99772 10.414,-4.98739 0.40481,-0.24077 0.78052,-0.53446 1.16681,-0.80433 0.15875,-0.11113 0.30956,-0.24607 0.52388,-0.23019 0.381,0.59531 0.7276,1.20914 0.97102,1.87589 0.0741,0.19844 0.15875,0.39952 0.10054,0.62442 -1.16681,0.79904 -2.34156,1.5875 -3.57717,2.27542 -2.9501,1.64306 -6.10658,2.75696 -9.27893,3.83381 -1.79917,0.61119 -3.65919,0.91546 -5.52186,1.21179 -0.17462,0.0291 -0.34925,0.0714 -0.52387,0.10848 -0.15875,0.0106 -0.3175,0.0265 -0.47625,0.0318 -0.7964,0.0238 -1.56634,0.32808 -2.37332,0.22754 0.20109,-1.00277 0.65882,-1.87325 1.29117,-2.65641 0.49742,-0.0397 0.99748,-0.0556 1.49225,-0.12436 0.93663,-0.12435 1.88383,-0.18521 2.78871,-0.48948 z"
         class="st9"
         inkscape:connector-curvature="0"
         style="fill:#57b2e3;stroke-width:0.26458332" />
      <path
         id="path845"
         d="m 108.00251,196.9276 c -0.90488,0.30427 -1.85208,0.36248 -2.78871,0.49213 -0.49477,0.0688 -0.99483,0.0847 -1.49225,0.12435 0,-0.0159 -0.008,-0.037 -0.003,-0.0503 0.65352,-1.34408 0.5371,-2.79135 0.59531,-4.23069 0.0635,-1.59808 -0.13229,-3.17235 -0.21961,-4.75721 -0.0212,-0.39422 -0.21431,-0.76464 -0.19579,-1.16945 0.037,-0.48948 0.40746,-0.78317 0.66411,-1.13242 0.64293,-0.87048 1.22766,-1.78858 1.94998,-2.59821 0.1561,-0.17462 0.33602,-0.31485 0.54504,-0.41275 0.94721,-0.44714 1.60866,-0.0106 1.63512,1.04511 0.0185,0.70643 -0.16139,1.38112 -0.31221,2.05052 -0.1561,0.69056 -0.037,1.35731 0.0476,2.02406 0.15346,1.21444 0.35454,2.42358 0.35454,3.65125 0,0.74612 0.14817,1.48167 0.0635,2.23573 -0.10848,0.97366 -0.47096,1.84944 -0.84402,2.72785 z"
         class="st10"
         inkscape:connector-curvature="0"
         style="fill:#b68f5c;stroke-width:0.26458332" />
      <path
         id="path847"
         d="m 129.37555,244.00491 c -0.16669,0.037 -0.33337,0.0741 -0.50006,0.11113 -1.87325,-0.14023 -3.74915,-0.23813 -5.61711,-0.43127 -1.31762,-0.13759 -2.6617,0.0503 -3.95287,-0.37836 -0.66411,-0.2196 -1.24354,-0.50535 -1.57427,-1.19856 -0.2249,-0.47625 -0.21431,-0.90223 0.0953,-1.2991 0.64029,-0.81492 1.31498,-1.59809 1.95262,-2.41565 0.46038,-0.59002 1.09538,-0.68527 1.75948,-0.79375 1.28323,-0.21167 2.56381,-0.35454 3.86556,-0.29898 0.0344,0.003 0.0741,-0.0556 0.10848,-0.082 0.39952,1.30704 1.29117,2.29394 2.08757,3.34169 0.49212,0.64823 0.73818,1.4261 1.10066,2.14048 0.21961,0.43656 0.44979,0.87048 0.67469,1.30439 z"
         class="st11"
         inkscape:connector-curvature="0"
         style="fill:#a18051;stroke-width:0.26458332" />
      <path
         id="path853"
         d="m 107.58976,233.69146 c 0.21431,0.46037 0.0635,0.94985 -0.008,1.38377 -0.36777,2.21191 -0.92869,4.37091 -1.98173,6.36587 -0.27252,0.51329 -0.58737,0.99483 -0.94985,1.43933 -0.60061,0.73555 -1.43669,0.90753 -2.3204,0.93134 -1.03981,-0.19315 -1.92616,-1.25677 -1.94468,-2.29659 -0.005,-0.36777 0.1217,-0.64029 0.39687,-0.85989 0.67998,-0.53711 1.37583,-1.05569 2.032,-1.6219 0.67998,-0.58473 1.50283,-0.57943 2.29923,-0.60854 0.48419,-0.0185 0.75935,-0.19314 0.9234,-0.62971 0.48154,-1.29646 0.96837,-2.59027 1.45256,-3.88408 0.0265,-0.0767 0.0661,-0.14817 0.10054,-0.2196 z"
         class="st11"
         inkscape:connector-curvature="0"
         style="fill:#a18051;stroke-width:0.26458332" />
      <path
         id="path857"
         d="m 101.67897,209.2175 c 0.11641,0.008 0.21166,0.0344 0.26723,0.16669 0.62441,1.47108 1.66158,2.64054 2.68816,3.81264 1.36261,1.5584 2.25161,3.38667 2.97127,5.31548 0.3519,0.94456 0.59003,1.91823 0.71438,2.92365 0.0185,0.15875 0.0556,0.29368 -0.11377,0.381 -0.44186,-0.64294 -0.87577,-1.29382 -1.32556,-1.93146 -0.28311,-0.40217 -0.5768,-0.79904 -0.88636,-1.18269 -0.45244,-0.56092 -0.70379,-1.21708 -0.91546,-1.89442 -0.25664,-0.8202 -0.62177,-1.54516 -1.19062,-2.22779 -0.7329,-0.87841 -1.40758,-1.85473 -1.57163,-3.07446 -0.0264,-0.18785 -0.13493,-0.37041 -0.23018,-0.54239 -0.30163,-0.53975 -0.49213,-1.10861 -0.40746,-1.74625 z"
         class="st11"
         inkscape:connector-curvature="0"
         style="fill:#a18051;stroke-width:0.26458332" />
      <path
         id="path859"
         d="m 100.50157,180.9256 c 1.08479,0.51065 2.00554,1.26471 2.90513,2.05052 0.29104,0.254 0.27516,0.40217 -0.14552,0.48419 -0.92869,0.17463 -1.83357,0.0556 -2.73315,-0.17462 -0.814917,-0.20903 -1.598083,-0.51594 -2.370667,-0.85196 -0.22225,-0.0979 -0.447145,-0.19315 -0.695854,-0.20373 0.259292,-0.64823 0.85725,-0.74613 1.412875,-0.889 0.53975,-0.14288 1.103313,-0.20109 1.627186,-0.4154 z"
         class="st13"
         inkscape:connector-curvature="0"
         style="fill:#ce9e91;stroke-width:0.26458332" />
      <path
         id="path865"
         d="m 102.43303,200.2005 c 0.80698,0.10054 1.57692,-0.20373 2.37331,-0.22754 0.15875,-0.005 0.3175,-0.0212 0.47625,-0.0317 -0.635,0.75406 -1.26735,1.50812 -1.90235,2.26218 -0.56092,0.66675 -1.12977,1.32557 -1.5584,2.09286 -0.0741,0.13229 -0.15875,0.254 -0.33602,0.23548 -0.25135,-0.52388 -0.13758,-1.02659 0.10848,-1.50813 0.28311,-0.55298 0.5424,-1.11125 0.71173,-1.71714 0.10054,-0.36777 -0.0873,-0.762 0.127,-1.10596 z"
         class="st10"
         inkscape:connector-curvature="0"
         style="fill:#b68f5c;stroke-width:0.26458332" />
      <path
         id="path867"
         d="m 150.67186,236.12298 c -0.0714,2.06904 -0.0529,4.14602 -0.67468,6.14891 -0.17198,0.55563 -0.38365,1.09009 -0.6694,1.59544 -0.0556,0.0979 -0.11113,0.24871 -0.24342,0.17727 -0.11377,-0.0609 -0.082,-0.20902 -0.0212,-0.31221 0.62441,-1.05833 0.87048,-2.24102 1.0742,-3.43693 0.0714,-0.42334 0.11907,-0.85196 0.14288,-1.28059 0.0476,-0.84402 0.0714,-1.69069 0.10054,-2.53735 0.005,-0.16934 -0.0132,-0.34396 0.21431,-0.381 0.0291,-0.003 0.0556,0.005 0.0767,0.0265 z"
         class="st15"
         inkscape:connector-curvature="0"
         style="fill:#020202;stroke-width:0.26458332" />
      <path
         id="path869"
         d="m 118.07784,225.80687 c -0.0132,-0.22754 -0.0238,-0.45773 -0.037,-0.68527 0.37835,-0.52916 0.38894,-1.1721 0.50006,-1.77535 0.25929,-1.40759 0.20373,-2.83369 0.20902,-4.25715 0,-0.16933 -0.0661,-0.35983 0.09,-0.53446 0.19579,0.1323 0.19844,0.3228 0.20109,0.51859 0.0212,2.03729 -0.0185,4.06929 -0.59267,6.04308 -0.0741,0.24871 -0.0291,0.58473 -0.37042,0.69056 z"
         class="st15"
         inkscape:connector-curvature="0"
         style="fill:#020202;stroke-width:0.26458332" />
      <path
         id="path873"
         d="m 120.21038,168.23089 c 0.36777,0.54505 0.37307,1.14036 0.47096,1.69069 0.16669,0.94456 0.24606,1.90236 0.21961,2.86808 -0.0106,0.37836 0.0185,0.7673 0.10583,1.13242 0.0767,0.33338 0.40746,0.49213 0.65087,0.70115 0.61648,0.52387 1.09803,1.15623 1.50284,1.86796 -0.77788,-0.57415 -1.28852,-1.44198 -2.16694,-2.01613 0,0.34396 -0.0106,0.65088 0.003,0.95515 0.0291,0.66939 -0.09,1.31762 -0.19844,1.97114 -0.0212,0.12965 -0.0212,0.31221 -0.19579,0.26988 -0.16404,-0.037 -0.11377,-0.23284 -0.0873,-0.34396 0.29898,-1.18004 0.21432,-2.3839 0.16934,-3.57188 -0.0661,-1.69862 -0.0529,-3.41312 -0.53711,-5.06941 -0.0397,-0.12436 -0.0582,-0.25665 0.0635,-0.45509 z"
         class="st15"
         inkscape:connector-curvature="0"
         style="fill:#020202;stroke-width:0.26458332" />
      <path
         id="path875"
         d="m 115.91884,171.14131 c 0.12436,0.0106 0.32015,-0.0106 0.26459,0.18521 -0.21696,0.77258 -0.21432,1.58485 -0.45509,2.35744 -0.18521,-0.57944 -0.082,-1.1483 0.0318,-1.71715 0.0556,-0.27252 0.17463,-0.53446 0.15875,-0.8255 z"
         class="st15"
         inkscape:connector-curvature="0"
         style="fill:#020202;stroke-width:0.26458332" />
    </g>
  </g>
  <style
     id="style815"
     type="text/css">
	.st0{fill:#22211F;}
	.st1{fill:#6D6D7F;}
	.st2{fill:#D0D5D8;}
	.st3{fill:#5E5E6D;}
	.st4{fill:#7E6846;}
	.st5{fill:#B6905C;}
	.st6{fill:#DBCDB8;}
	.st7{fill:#474755;}
	.st8{fill:#DCE1E4;}
	.st9{fill:#57B2E3;}
	.st10{fill:#B68F5C;}
	.st11{fill:#A18051;}
	.st12{fill:#0A0A0A;}
	.st13{fill:#CE9E91;}
	.st14{fill:#767676;}
	.st15{fill:#020202;}
</style>
</svg>
